<?xml version="1.0" encoding="UTF-8" standalone="no"?>
<!DOCTYPE svg PUBLIC "-//W3C//DTD SVG 1.1//EN"
 "http://www.w3.org/Graphics/SVG/1.1/DTD/svg11.dtd">
<!-- Generated by graphviz version 14.1.0 (20251206.1807)
 -->
<!-- Pages: 1 -->
<svg width="1890pt" height="764pt"
 viewBox="0.00 0.00 1890.00 764.00" xmlns="http://www.w3.org/2000/svg" xmlns:xlink="http://www.w3.org/1999/xlink">
<g id="graph0" class="graph" transform="scale(1 1) rotate(0) translate(4 760)">
<polygon fill="white" stroke="none" points="-4,4 -4,-760 1886.12,-760 1886.12,4 -4,4"/>
<!-- [root] aws_eip.main (expand) -->
<g id="node1" class="node">
<title>[root] aws_eip.main (expand)</title>
<polygon fill="none" stroke="black" points="779.75,-180 688,-180 688,-144 779.75,-144 779.75,-180"/>
<text xml:space="preserve" text-anchor="middle" x="733.88" y="-156.95" font-family="Times,serif" font-size="14.00">aws_eip.main</text>
</g>
<!-- [root] provider[&quot;registry.terraform.io/hashicorp/aws&quot;] -->
<g id="node39" class="node">
<title>[root] provider[&quot;registry.terraform.io/hashicorp/aws&quot;]</title>
<polygon fill="none" stroke="black" points="788.88,-36 524.44,-18 788.87,0 1053.31,-18 788.88,-36"/>
<text xml:space="preserve" text-anchor="middle" x="788.88" y="-12.95" font-family="Times,serif" font-size="14.00">provider[&quot;registry.terraform.io/hashicorp/aws&quot;]</text>
</g>
<!-- [root] aws_eip.main (expand)&#45;&gt;[root] provider[&quot;registry.terraform.io/hashicorp/aws&quot;] -->
<g id="edge1" class="edge">
<title>[root] aws_eip.main (expand)&#45;&gt;[root] provider[&quot;registry.terraform.io/hashicorp/aws&quot;]</title>
<path fill="none" stroke="black" d="M733.88,-143.76C733.88,-143.76 733.88,-44.13 733.88,-44.13"/>
<polygon fill="black" stroke="black" points="737.38,-44.13 733.88,-34.13 730.38,-44.13 737.38,-44.13"/>
</g>
<!-- [root] aws_internet_gateway.main (expand) -->
<g id="node2" class="node">
<title>[root] aws_internet_gateway.main (expand)</title>
<polygon fill="none" stroke="black" points="949.62,-252 782.12,-252 782.12,-216 949.62,-216 949.62,-252"/>
<text xml:space="preserve" text-anchor="middle" x="865.88" y="-228.95" font-family="Times,serif" font-size="14.00">aws_internet_gateway.main</text>
</g>
<!-- [root] aws_vpc.main -->
<g id="node37" class="node">
<title>[root] aws_vpc.main</title>
<polygon fill="none" stroke="black" points="1044.25,-180 949.5,-180 949.5,-144 1044.25,-144 1044.25,-180"/>
<text xml:space="preserve" text-anchor="middle" x="996.88" y="-156.95" font-family="Times,serif" font-size="14.00">aws_vpc.main</text>
</g>
<!-- [root] aws_internet_gateway.main (expand)&#45;&gt;[root] aws_vpc.main -->
<g id="edge2" class="edge">
<title>[root] aws_internet_gateway.main (expand)&#45;&gt;[root] aws_vpc.main</title>
<path fill="none" stroke="black" d="M949.87,-228C964.36,-228 974.88,-228 974.88,-228 974.88,-228 974.88,-191.9 974.88,-191.9"/>
<polygon fill="black" stroke="black" points="978.38,-191.9 974.88,-181.9 971.38,-191.9 978.38,-191.9"/>
</g>
<!-- [root] aws_nat_gateway.main (expand) -->
<g id="node3" class="node">
<title>[root] aws_nat_gateway.main (expand)</title>
<polygon fill="none" stroke="black" points="633.25,-324 490.5,-324 490.5,-288 633.25,-288 633.25,-324"/>
<text xml:space="preserve" text-anchor="middle" x="561.88" y="-300.95" font-family="Times,serif" font-size="14.00">aws_nat_gateway.main</text>
</g>
<!-- [root] aws_nat_gateway.main (expand)&#45;&gt;[root] aws_eip.main (expand) -->
<g id="edge3" class="edge">
<title>[root] aws_nat_gateway.main (expand)&#45;&gt;[root] aws_eip.main (expand)</title>
<path fill="none" stroke="black" d="M561.62,-287.76C561.62,-249.01 561.62,-162 561.62,-162 561.62,-162 676.2,-162 676.2,-162"/>
<polygon fill="black" stroke="black" points="676.2,-165.5 686.2,-162 676.2,-158.5 676.2,-165.5"/>
</g>
<!-- [root] aws_nat_gateway.main (expand)&#45;&gt;[root] aws_internet_gateway.main (expand) -->
<g id="edge4" class="edge">
<title>[root] aws_nat_gateway.main (expand)&#45;&gt;[root] aws_internet_gateway.main (expand)</title>
<path fill="none" stroke="black" d="M611.5,-287.58C611.5,-278.72 611.5,-270 611.5,-270 611.5,-270 801.38,-270 801.38,-270 801.38,-270 801.38,-263.94 801.38,-263.94"/>
<polygon fill="black" stroke="black" points="804.88,-263.94 801.38,-253.94 797.88,-263.94 804.88,-263.94"/>
</g>
<!-- [root] aws_subnet.public_c (expand) -->
<g id="node36" class="node">
<title>[root] aws_subnet.public_c (expand)</title>
<polygon fill="none" stroke="black" points="533.5,-252 404.25,-252 404.25,-216 533.5,-216 533.5,-252"/>
<text xml:space="preserve" text-anchor="middle" x="468.88" y="-228.95" font-family="Times,serif" font-size="14.00">aws_subnet.public_c</text>
</g>
<!-- [root] aws_nat_gateway.main (expand)&#45;&gt;[root] aws_subnet.public_c (expand) -->
<g id="edge5" class="edge">
<title>[root] aws_nat_gateway.main (expand)&#45;&gt;[root] aws_subnet.public_c (expand)</title>
<path fill="none" stroke="black" d="M512,-287.83C512,-287.83 512,-263.93 512,-263.93"/>
<polygon fill="black" stroke="black" points="515.5,-263.93 512,-253.93 508.5,-263.93 515.5,-263.93"/>
</g>
<!-- [root] aws_route_table.local -->
<g id="node4" class="node">
<title>[root] aws_route_table.local</title>
<polygon fill="none" stroke="black" points="1389.12,-324 1254.62,-324 1254.62,-288 1389.12,-288 1389.12,-324"/>
<text xml:space="preserve" text-anchor="middle" x="1321.88" y="-300.95" font-family="Times,serif" font-size="14.00">aws_route_table.local</text>
</g>
<!-- [root] aws_route_table.local (expand) -->
<g id="node5" class="node">
<title>[root] aws_route_table.local (expand)</title>
<polygon fill="none" stroke="black" points="1396.12,-252 1261.62,-252 1261.62,-216 1396.12,-216 1396.12,-252"/>
<text xml:space="preserve" text-anchor="middle" x="1328.88" y="-228.95" font-family="Times,serif" font-size="14.00">aws_route_table.local</text>
</g>
<!-- [root] aws_route_table.local&#45;&gt;[root] aws_route_table.local (expand) -->
<g id="edge7" class="edge">
<title>[root] aws_route_table.local&#45;&gt;[root] aws_route_table.local (expand)</title>
<path fill="none" stroke="black" d="M1325.38,-287.83C1325.38,-287.83 1325.38,-263.93 1325.38,-263.93"/>
<polygon fill="black" stroke="black" points="1328.88,-263.93 1325.38,-253.93 1321.88,-263.93 1328.88,-263.93"/>
</g>
<!-- [root] aws_route_table.local (expand)&#45;&gt;[root] aws_vpc.main -->
<g id="edge6" class="edge">
<title>[root] aws_route_table.local (expand)&#45;&gt;[root] aws_vpc.main</title>
<path fill="none" stroke="black" d="M1328.88,-215.78C1328.88,-197.17 1328.88,-171 1328.88,-171 1328.88,-171 1055.96,-171 1055.96,-171"/>
<polygon fill="black" stroke="black" points="1055.96,-167.5 1045.96,-171 1055.96,-174.5 1055.96,-167.5"/>
</g>
<!-- [root] aws_route_table.private -->
<g id="node6" class="node">
<title>[root] aws_route_table.private</title>
<polygon fill="none" stroke="black" points="634.75,-468 489,-468 489,-432 634.75,-432 634.75,-468"/>
<text xml:space="preserve" text-anchor="middle" x="561.88" y="-444.95" font-family="Times,serif" font-size="14.00">aws_route_table.private</text>
</g>
<!-- [root] aws_route_table.private (expand) -->
<g id="node7" class="node">
<title>[root] aws_route_table.private (expand)</title>
<polygon fill="none" stroke="black" points="634.75,-396 489,-396 489,-360 634.75,-360 634.75,-396"/>
<text xml:space="preserve" text-anchor="middle" x="561.88" y="-372.95" font-family="Times,serif" font-size="14.00">aws_route_table.private</text>
</g>
<!-- [root] aws_route_table.private&#45;&gt;[root] aws_route_table.private (expand) -->
<g id="edge9" class="edge">
<title>[root] aws_route_table.private&#45;&gt;[root] aws_route_table.private (expand)</title>
<path fill="none" stroke="black" d="M561.88,-431.83C561.88,-431.83 561.88,-407.93 561.88,-407.93"/>
<polygon fill="black" stroke="black" points="565.38,-407.93 561.88,-397.93 558.38,-407.93 565.38,-407.93"/>
</g>
<!-- [root] aws_route_table.private (expand)&#45;&gt;[root] aws_nat_gateway.main (expand) -->
<g id="edge8" class="edge">
<title>[root] aws_route_table.private (expand)&#45;&gt;[root] aws_nat_gateway.main (expand)</title>
<path fill="none" stroke="black" d="M561.88,-359.83C561.88,-359.83 561.88,-335.93 561.88,-335.93"/>
<polygon fill="black" stroke="black" points="565.38,-335.93 561.88,-325.93 558.38,-335.93 565.38,-335.93"/>
</g>
<!-- [root] aws_route_table.public -->
<g id="node8" class="node">
<title>[root] aws_route_table.public</title>
<polygon fill="none" stroke="black" points="839.88,-396 697.88,-396 697.88,-360 839.88,-360 839.88,-396"/>
<text xml:space="preserve" text-anchor="middle" x="768.88" y="-372.95" font-family="Times,serif" font-size="14.00">aws_route_table.public</text>
</g>
<!-- [root] aws_route_table.public (expand) -->
<g id="node9" class="node">
<title>[root] aws_route_table.public (expand)</title>
<polygon fill="none" stroke="black" points="839.88,-324 697.88,-324 697.88,-288 839.88,-288 839.88,-324"/>
<text xml:space="preserve" text-anchor="middle" x="768.88" y="-300.95" font-family="Times,serif" font-size="14.00">aws_route_table.public</text>
</g>
<!-- [root] aws_route_table.public&#45;&gt;[root] aws_route_table.public (expand) -->
<g id="edge11" class="edge">
<title>[root] aws_route_table.public&#45;&gt;[root] aws_route_table.public (expand)</title>
<path fill="none" stroke="black" d="M768.88,-359.83C768.88,-359.83 768.88,-335.93 768.88,-335.93"/>
<polygon fill="black" stroke="black" points="772.38,-335.93 768.88,-325.93 765.38,-335.93 772.38,-335.93"/>
</g>
<!-- [root] aws_route_table.public (expand)&#45;&gt;[root] aws_internet_gateway.main (expand) -->
<g id="edge10" class="edge">
<title>[root] aws_route_table.public (expand)&#45;&gt;[root] aws_internet_gateway.main (expand)</title>
<path fill="none" stroke="black" d="M820.62,-287.83C820.62,-287.83 820.62,-263.93 820.62,-263.93"/>
<polygon fill="black" stroke="black" points="824.13,-263.93 820.63,-253.93 817.13,-263.93 824.13,-263.93"/>
</g>
<!-- [root] aws_route_table_association.private_data_a -->
<g id="node10" class="node">
<title>[root] aws_route_table_association.private_data_a</title>
<polygon fill="none" stroke="black" points="1508.12,-540 1253.62,-540 1253.62,-504 1508.12,-504 1508.12,-540"/>
<text xml:space="preserve" text-anchor="middle" x="1380.88" y="-516.95" font-family="Times,serif" font-size="14.00">aws_route_table_association.private_data_a</text>
</g>
<!-- [root] aws_route_table_association.private_data_a (expand) -->
<g id="node11" class="node">
<title>[root] aws_route_table_association.private_data_a (expand)</title>
<polygon fill="none" stroke="black" points="1336.12,-396 1081.62,-396 1081.62,-360 1336.12,-360 1336.12,-396"/>
<text xml:space="preserve" text-anchor="middle" x="1208.88" y="-372.95" font-family="Times,serif" font-size="14.00">aws_route_table_association.private_data_a</text>
</g>
<!-- [root] aws_route_table_association.private_data_a&#45;&gt;[root] aws_route_table_association.private_data_a (expand) -->
<g id="edge14" class="edge">
<title>[root] aws_route_table_association.private_data_a&#45;&gt;[root] aws_route_table_association.private_data_a (expand)</title>
<path fill="none" stroke="black" d="M1349.44,-503.76C1349.44,-465.01 1349.44,-378 1349.44,-378 1349.44,-378 1347.98,-378 1347.98,-378"/>
<polygon fill="black" stroke="black" points="1347.98,-374.5 1337.98,-378 1347.98,-381.5 1347.98,-374.5"/>
</g>
<!-- [root] aws_route_table_association.private_data_a (expand)&#45;&gt;[root] aws_route_table.local -->
<g id="edge12" class="edge">
<title>[root] aws_route_table_association.private_data_a (expand)&#45;&gt;[root] aws_route_table.local</title>
<path fill="none" stroke="black" d="M1295.38,-359.83C1295.38,-359.83 1295.38,-335.93 1295.38,-335.93"/>
<polygon fill="black" stroke="black" points="1298.88,-335.93 1295.38,-325.93 1291.88,-335.93 1298.88,-335.93"/>
</g>
<!-- [root] aws_subnet.private_data_a (expand) -->
<g id="node28" class="node">
<title>[root] aws_subnet.private_data_a (expand)</title>
<polygon fill="none" stroke="black" points="1244,-252 1081.75,-252 1081.75,-216 1244,-216 1244,-252"/>
<text xml:space="preserve" text-anchor="middle" x="1162.88" y="-228.95" font-family="Times,serif" font-size="14.00">aws_subnet.private_data_a</text>
</g>
<!-- [root] aws_route_table_association.private_data_a (expand)&#45;&gt;[root] aws_subnet.private_data_a (expand) -->
<g id="edge13" class="edge">
<title>[root] aws_route_table_association.private_data_a (expand)&#45;&gt;[root] aws_subnet.private_data_a (expand)</title>
<path fill="none" stroke="black" d="M1162.88,-359.76C1162.88,-359.76 1162.88,-263.6 1162.88,-263.6"/>
<polygon fill="black" stroke="black" points="1166.38,-263.6 1162.88,-253.6 1159.38,-263.6 1166.38,-263.6"/>
</g>
<!-- [root] aws_route_table_association.private_data_b -->
<g id="node12" class="node">
<title>[root] aws_route_table_association.private_data_b</title>
<polygon fill="none" stroke="black" points="1663.5,-612 1408.25,-612 1408.25,-576 1663.5,-576 1663.5,-612"/>
<text xml:space="preserve" text-anchor="middle" x="1535.88" y="-588.95" font-family="Times,serif" font-size="14.00">aws_route_table_association.private_data_b</text>
</g>
<!-- [root] aws_route_table_association.private_data_b (expand) -->
<g id="node13" class="node">
<title>[root] aws_route_table_association.private_data_b (expand)</title>
<polygon fill="none" stroke="black" points="1609.5,-396 1354.25,-396 1354.25,-360 1609.5,-360 1609.5,-396"/>
<text xml:space="preserve" text-anchor="middle" x="1481.88" y="-372.95" font-family="Times,serif" font-size="14.00">aws_route_table_association.private_data_b</text>
</g>
<!-- [root] aws_route_table_association.private_data_b&#45;&gt;[root] aws_route_table_association.private_data_b (expand) -->
<g id="edge17" class="edge">
<title>[root] aws_route_table_association.private_data_b&#45;&gt;[root] aws_route_table_association.private_data_b (expand)</title>
<path fill="none" stroke="black" d="M1555.88,-575.58C1555.88,-575.58 1555.88,-407.88 1555.88,-407.88"/>
<polygon fill="black" stroke="black" points="1559.38,-407.88 1555.88,-397.88 1552.38,-407.88 1559.38,-407.88"/>
</g>
<!-- [root] aws_route_table_association.private_data_b (expand)&#45;&gt;[root] aws_route_table.local -->
<g id="edge15" class="edge">
<title>[root] aws_route_table_association.private_data_b (expand)&#45;&gt;[root] aws_route_table.local</title>
<path fill="none" stroke="black" d="M1365.88,-359.83C1365.88,-359.83 1365.88,-335.93 1365.88,-335.93"/>
<polygon fill="black" stroke="black" points="1369.38,-335.93 1365.88,-325.93 1362.38,-335.93 1369.38,-335.93"/>
</g>
<!-- [root] aws_subnet.private_data_b (expand) -->
<g id="node29" class="node">
<title>[root] aws_subnet.private_data_b (expand)</title>
<polygon fill="none" stroke="black" points="1570.38,-324 1407.38,-324 1407.38,-288 1570.38,-288 1570.38,-324"/>
<text xml:space="preserve" text-anchor="middle" x="1488.88" y="-300.95" font-family="Times,serif" font-size="14.00">aws_subnet.private_data_b</text>
</g>
<!-- [root] aws_route_table_association.private_data_b (expand)&#45;&gt;[root] aws_subnet.private_data_b (expand) -->
<g id="edge16" class="edge">
<title>[root] aws_route_table_association.private_data_b (expand)&#45;&gt;[root] aws_subnet.private_data_b (expand)</title>
<path fill="none" stroke="black" d="M1488.88,-359.83C1488.88,-359.83 1488.88,-335.93 1488.88,-335.93"/>
<polygon fill="black" stroke="black" points="1492.38,-335.93 1488.88,-325.93 1485.38,-335.93 1492.38,-335.93"/>
</g>
<!-- [root] aws_route_table_association.private_data_c -->
<g id="node14" class="node">
<title>[root] aws_route_table_association.private_data_c</title>
<polygon fill="none" stroke="black" points="1858.12,-540 1603.62,-540 1603.62,-504 1858.12,-504 1858.12,-540"/>
<text xml:space="preserve" text-anchor="middle" x="1730.88" y="-516.95" font-family="Times,serif" font-size="14.00">aws_route_table_association.private_data_c</text>
</g>
<!-- [root] aws_route_table_association.private_data_c (expand) -->
<g id="node15" class="node">
<title>[root] aws_route_table_association.private_data_c (expand)</title>
<polygon fill="none" stroke="black" points="1882.12,-396 1627.62,-396 1627.62,-360 1882.12,-360 1882.12,-396"/>
<text xml:space="preserve" text-anchor="middle" x="1754.88" y="-372.95" font-family="Times,serif" font-size="14.00">aws_route_table_association.private_data_c</text>
</g>
<!-- [root] aws_route_table_association.private_data_c&#45;&gt;[root] aws_route_table_association.private_data_c (expand) -->
<g id="edge20" class="edge">
<title>[root] aws_route_table_association.private_data_c&#45;&gt;[root] aws_route_table_association.private_data_c (expand)</title>
<path fill="none" stroke="black" d="M1742.88,-503.76C1742.88,-503.76 1742.88,-407.6 1742.88,-407.6"/>
<polygon fill="black" stroke="black" points="1746.38,-407.6 1742.88,-397.6 1739.38,-407.6 1746.38,-407.6"/>
</g>
<!-- [root] aws_route_table_association.private_data_c (expand)&#45;&gt;[root] aws_route_table.local -->
<g id="edge18" class="edge">
<title>[root] aws_route_table_association.private_data_c (expand)&#45;&gt;[root] aws_route_table.local</title>
<path fill="none" stroke="black" d="M1631.19,-359.58C1631.19,-350.72 1631.19,-342 1631.19,-342 1631.19,-342 1377.5,-342 1377.5,-342 1377.5,-342 1377.5,-335.94 1377.5,-335.94"/>
<polygon fill="black" stroke="black" points="1381,-335.94 1377.5,-325.94 1374,-335.94 1381,-335.94"/>
</g>
<!-- [root] aws_subnet.private_data_c (expand) -->
<g id="node30" class="node">
<title>[root] aws_subnet.private_data_c (expand)</title>
<polygon fill="none" stroke="black" points="1797,-324 1634.75,-324 1634.75,-288 1797,-288 1797,-324"/>
<text xml:space="preserve" text-anchor="middle" x="1715.88" y="-300.95" font-family="Times,serif" font-size="14.00">aws_subnet.private_data_c</text>
</g>
<!-- [root] aws_route_table_association.private_data_c (expand)&#45;&gt;[root] aws_subnet.private_data_c (expand) -->
<g id="edge19" class="edge">
<title>[root] aws_route_table_association.private_data_c (expand)&#45;&gt;[root] aws_subnet.private_data_c (expand)</title>
<path fill="none" stroke="black" d="M1715.88,-359.83C1715.88,-359.83 1715.88,-335.93 1715.88,-335.93"/>
<polygon fill="black" stroke="black" points="1719.38,-335.93 1715.88,-325.93 1712.38,-335.93 1719.38,-335.93"/>
</g>
<!-- [root] aws_route_table_association.private_egress_a -->
<g id="node16" class="node">
<title>[root] aws_route_table_association.private_egress_a</title>
<polygon fill="none" stroke="black" points="265.75,-612 0,-612 0,-576 265.75,-576 265.75,-612"/>
<text xml:space="preserve" text-anchor="middle" x="132.88" y="-588.95" font-family="Times,serif" font-size="14.00">aws_route_table_association.private_egress_a</text>
</g>
<!-- [root] aws_route_table_association.private_egress_a (expand) -->
<g id="node17" class="node">
<title>[root] aws_route_table_association.private_egress_a (expand)</title>
<polygon fill="none" stroke="black" points="351.75,-540 86,-540 86,-504 351.75,-504 351.75,-540"/>
<text xml:space="preserve" text-anchor="middle" x="218.88" y="-516.95" font-family="Times,serif" font-size="14.00">aws_route_table_association.private_egress_a</text>
</g>
<!-- [root] aws_route_table_association.private_egress_a&#45;&gt;[root] aws_route_table_association.private_egress_a (expand) -->
<g id="edge23" class="edge">
<title>[root] aws_route_table_association.private_egress_a&#45;&gt;[root] aws_route_table_association.private_egress_a (expand)</title>
<path fill="none" stroke="black" d="M175.88,-575.83C175.88,-575.83 175.88,-551.93 175.88,-551.93"/>
<polygon fill="black" stroke="black" points="179.38,-551.93 175.88,-541.93 172.38,-551.93 179.38,-551.93"/>
</g>
<!-- [root] aws_route_table_association.private_egress_a (expand)&#45;&gt;[root] aws_route_table.private -->
<g id="edge21" class="edge">
<title>[root] aws_route_table_association.private_egress_a (expand)&#45;&gt;[root] aws_route_table.private</title>
<path fill="none" stroke="black" d="M300.44,-503.58C300.44,-494.72 300.44,-486 300.44,-486 300.44,-486 525.44,-486 525.44,-486 525.44,-486 525.44,-479.94 525.44,-479.94"/>
<polygon fill="black" stroke="black" points="528.94,-479.94 525.44,-469.94 521.94,-479.94 528.94,-479.94"/>
</g>
<!-- [root] aws_subnet.private_egress_a (expand) -->
<g id="node31" class="node">
<title>[root] aws_subnet.private_egress_a (expand)</title>
<polygon fill="none" stroke="black" points="347.62,-252 174.12,-252 174.12,-216 347.62,-216 347.62,-252"/>
<text xml:space="preserve" text-anchor="middle" x="260.88" y="-228.95" font-family="Times,serif" font-size="14.00">aws_subnet.private_egress_a</text>
</g>
<!-- [root] aws_route_table_association.private_egress_a (expand)&#45;&gt;[root] aws_subnet.private_egress_a (expand) -->
<g id="edge22" class="edge">
<title>[root] aws_route_table_association.private_egress_a (expand)&#45;&gt;[root] aws_subnet.private_egress_a (expand)</title>
<path fill="none" stroke="black" d="M211.62,-503.55C211.62,-503.55 211.62,-263.81 211.62,-263.81"/>
<polygon fill="black" stroke="black" points="215.13,-263.81 211.63,-253.81 208.13,-263.81 215.13,-263.81"/>
</g>
<!-- [root] aws_route_table_association.private_egress_b -->
<g id="node18" class="node">
<title>[root] aws_route_table_association.private_egress_b</title>
<polygon fill="none" stroke="black" points="790.12,-612 523.62,-612 523.62,-576 790.12,-576 790.12,-612"/>
<text xml:space="preserve" text-anchor="middle" x="656.88" y="-588.95" font-family="Times,serif" font-size="14.00">aws_route_table_association.private_egress_b</text>
</g>
<!-- [root] aws_route_table_association.private_egress_b (expand) -->
<g id="node19" class="node">
<title>[root] aws_route_table_association.private_egress_b (expand)</title>
<polygon fill="none" stroke="black" points="674.12,-540 407.62,-540 407.62,-504 674.12,-504 674.12,-540"/>
<text xml:space="preserve" text-anchor="middle" x="540.88" y="-516.95" font-family="Times,serif" font-size="14.00">aws_route_table_association.private_egress_b</text>
</g>
<!-- [root] aws_route_table_association.private_egress_b&#45;&gt;[root] aws_route_table_association.private_egress_b (expand) -->
<g id="edge26" class="edge">
<title>[root] aws_route_table_association.private_egress_b&#45;&gt;[root] aws_route_table_association.private_egress_b (expand)</title>
<path fill="none" stroke="black" d="M598.88,-575.83C598.88,-575.83 598.88,-551.93 598.88,-551.93"/>
<polygon fill="black" stroke="black" points="602.38,-551.93 598.88,-541.93 595.38,-551.93 602.38,-551.93"/>
</g>
<!-- [root] aws_route_table_association.private_egress_b (expand)&#45;&gt;[root] aws_route_table.private -->
<g id="edge24" class="edge">
<title>[root] aws_route_table_association.private_egress_b (expand)&#45;&gt;[root] aws_route_table.private</title>
<path fill="none" stroke="black" d="M561.88,-503.83C561.88,-503.83 561.88,-479.93 561.88,-479.93"/>
<polygon fill="black" stroke="black" points="565.38,-479.93 561.88,-469.93 558.38,-479.93 565.38,-479.93"/>
</g>
<!-- [root] aws_subnet.private_egress_b (expand) -->
<g id="node32" class="node">
<title>[root] aws_subnet.private_egress_b (expand)</title>
<polygon fill="none" stroke="black" points="764,-252 589.75,-252 589.75,-216 764,-216 764,-252"/>
<text xml:space="preserve" text-anchor="middle" x="676.88" y="-228.95" font-family="Times,serif" font-size="14.00">aws_subnet.private_egress_b</text>
</g>
<!-- [root] aws_route_table_association.private_egress_b (expand)&#45;&gt;[root] aws_subnet.private_egress_b (expand) -->
<g id="edge25" class="edge">
<title>[root] aws_route_table_association.private_egress_b (expand)&#45;&gt;[root] aws_subnet.private_egress_b (expand)</title>
<path fill="none" stroke="black" d="M654.44,-503.55C654.44,-503.55 654.44,-263.81 654.44,-263.81"/>
<polygon fill="black" stroke="black" points="657.94,-263.81 654.44,-253.81 650.94,-263.81 657.94,-263.81"/>
</g>
<!-- [root] aws_route_table_association.private_egress_c -->
<g id="node20" class="node">
<title>[root] aws_route_table_association.private_egress_c</title>
<polygon fill="none" stroke="black" points="1111.75,-612 846,-612 846,-576 1111.75,-576 1111.75,-612"/>
<text xml:space="preserve" text-anchor="middle" x="978.88" y="-588.95" font-family="Times,serif" font-size="14.00">aws_route_table_association.private_egress_c</text>
</g>
<!-- [root] aws_route_table_association.private_egress_c (expand) -->
<g id="node21" class="node">
<title>[root] aws_route_table_association.private_egress_c (expand)</title>
<polygon fill="none" stroke="black" points="1197.75,-540 932,-540 932,-504 1197.75,-504 1197.75,-540"/>
<text xml:space="preserve" text-anchor="middle" x="1064.88" y="-516.95" font-family="Times,serif" font-size="14.00">aws_route_table_association.private_egress_c</text>
</g>
<!-- [root] aws_route_table_association.private_egress_c&#45;&gt;[root] aws_route_table_association.private_egress_c (expand) -->
<g id="edge29" class="edge">
<title>[root] aws_route_table_association.private_egress_c&#45;&gt;[root] aws_route_table_association.private_egress_c (expand)</title>
<path fill="none" stroke="black" d="M1021.88,-575.83C1021.88,-575.83 1021.88,-551.93 1021.88,-551.93"/>
<polygon fill="black" stroke="black" points="1025.38,-551.93 1021.88,-541.93 1018.38,-551.93 1025.38,-551.93"/>
</g>
<!-- [root] aws_route_table_association.private_egress_c (expand)&#45;&gt;[root] aws_route_table.private -->
<g id="edge27" class="edge">
<title>[root] aws_route_table_association.private_egress_c (expand)&#45;&gt;[root] aws_route_table.private</title>
<path fill="none" stroke="black" d="M1005.67,-503.54C1005.67,-498.8 1005.67,-495 1005.67,-495 1005.67,-495 598.31,-495 598.31,-495 598.31,-495 598.31,-479.82 598.31,-479.82"/>
<polygon fill="black" stroke="black" points="601.81,-479.82 598.31,-469.82 594.81,-479.82 601.81,-479.82"/>
</g>
<!-- [root] aws_subnet.private_egress_c (expand) -->
<g id="node33" class="node">
<title>[root] aws_subnet.private_egress_c (expand)</title>
<polygon fill="none" stroke="black" points="1344.62,-468 1171.12,-468 1171.12,-432 1344.62,-432 1344.62,-468"/>
<text xml:space="preserve" text-anchor="middle" x="1257.88" y="-444.95" font-family="Times,serif" font-size="14.00">aws_subnet.private_egress_c</text>
</g>
<!-- [root] aws_route_table_association.private_egress_c (expand)&#45;&gt;[root] aws_subnet.private_egress_c (expand) -->
<g id="edge28" class="edge">
<title>[root] aws_route_table_association.private_egress_c (expand)&#45;&gt;[root] aws_subnet.private_egress_c (expand)</title>
<path fill="none" stroke="black" d="M1184.44,-503.83C1184.44,-503.83 1184.44,-479.93 1184.44,-479.93"/>
<polygon fill="black" stroke="black" points="1187.94,-479.93 1184.44,-469.93 1180.94,-479.93 1187.94,-479.93"/>
</g>
<!-- [root] aws_route_table_association.public_a -->
<g id="node22" class="node">
<title>[root] aws_route_table_association.public_a</title>
<polygon fill="none" stroke="black" points="913.62,-540 692.12,-540 692.12,-504 913.62,-504 913.62,-540"/>
<text xml:space="preserve" text-anchor="middle" x="802.88" y="-516.95" font-family="Times,serif" font-size="14.00">aws_route_table_association.public_a</text>
</g>
<!-- [root] aws_route_table_association.public_a (expand) -->
<g id="node23" class="node">
<title>[root] aws_route_table_association.public_a (expand)</title>
<polygon fill="none" stroke="black" points="912.62,-468 691.12,-468 691.12,-432 912.62,-432 912.62,-468"/>
<text xml:space="preserve" text-anchor="middle" x="801.88" y="-444.95" font-family="Times,serif" font-size="14.00">aws_route_table_association.public_a</text>
</g>
<!-- [root] aws_route_table_association.public_a&#45;&gt;[root] aws_route_table_association.public_a (expand) -->
<g id="edge32" class="edge">
<title>[root] aws_route_table_association.public_a&#45;&gt;[root] aws_route_table_association.public_a (expand)</title>
<path fill="none" stroke="black" d="M802.38,-503.83C802.38,-503.83 802.38,-479.93 802.38,-479.93"/>
<polygon fill="black" stroke="black" points="805.88,-479.93 802.38,-469.93 798.88,-479.93 805.88,-479.93"/>
</g>
<!-- [root] aws_route_table_association.public_a (expand)&#45;&gt;[root] aws_route_table.public -->
<g id="edge30" class="edge">
<title>[root] aws_route_table_association.public_a (expand)&#45;&gt;[root] aws_route_table.public</title>
<path fill="none" stroke="black" d="M768.88,-431.83C768.88,-431.83 768.88,-407.93 768.88,-407.93"/>
<polygon fill="black" stroke="black" points="772.38,-407.93 768.88,-397.93 765.38,-407.93 772.38,-407.93"/>
</g>
<!-- [root] aws_subnet.public_a (expand) -->
<g id="node34" class="node">
<title>[root] aws_subnet.public_a (expand)</title>
<polygon fill="none" stroke="black" points="987.5,-324 858.25,-324 858.25,-288 987.5,-288 987.5,-324"/>
<text xml:space="preserve" text-anchor="middle" x="922.88" y="-300.95" font-family="Times,serif" font-size="14.00">aws_subnet.public_a</text>
</g>
<!-- [root] aws_route_table_association.public_a (expand)&#45;&gt;[root] aws_subnet.public_a (expand) -->
<g id="edge31" class="edge">
<title>[root] aws_route_table_association.public_a (expand)&#45;&gt;[root] aws_subnet.public_a (expand)</title>
<path fill="none" stroke="black" d="M877.06,-431.76C877.06,-431.76 877.06,-335.6 877.06,-335.6"/>
<polygon fill="black" stroke="black" points="880.56,-335.6 877.06,-325.6 873.56,-335.6 880.56,-335.6"/>
</g>
<!-- [root] aws_route_table_association.public_b -->
<g id="node24" class="node">
<title>[root] aws_route_table_association.public_b</title>
<polygon fill="none" stroke="black" points="1352,-612 1129.75,-612 1129.75,-576 1352,-576 1352,-612"/>
<text xml:space="preserve" text-anchor="middle" x="1240.88" y="-588.95" font-family="Times,serif" font-size="14.00">aws_route_table_association.public_b</text>
</g>
<!-- [root] aws_route_table_association.public_b (expand) -->
<g id="node25" class="node">
<title>[root] aws_route_table_association.public_b (expand)</title>
<polygon fill="none" stroke="black" points="1153,-468 930.75,-468 930.75,-432 1153,-432 1153,-468"/>
<text xml:space="preserve" text-anchor="middle" x="1041.88" y="-444.95" font-family="Times,serif" font-size="14.00">aws_route_table_association.public_b</text>
</g>
<!-- [root] aws_route_table_association.public_b&#45;&gt;[root] aws_route_table_association.public_b (expand) -->
<g id="edge35" class="edge">
<title>[root] aws_route_table_association.public_b&#45;&gt;[root] aws_route_table_association.public_b (expand)</title>
<path fill="none" stroke="black" d="M1225.69,-575.72C1225.69,-542.81 1225.69,-477 1225.69,-477 1225.69,-477 1079.33,-477 1079.33,-477 1079.33,-477 1079.33,-476.15 1079.33,-476.15"/>
<polygon fill="black" stroke="black" points="1082.83,-479.97 1079.33,-469.97 1075.83,-479.97 1082.83,-479.97"/>
</g>
<!-- [root] aws_route_table_association.public_b (expand)&#45;&gt;[root] aws_route_table.public -->
<g id="edge33" class="edge">
<title>[root] aws_route_table_association.public_b (expand)&#45;&gt;[root] aws_route_table.public</title>
<path fill="none" stroke="black" d="M962.46,-431.7C962.46,-419.24 962.46,-405 962.46,-405 962.46,-405 804.38,-405 804.38,-405 804.38,-405 804.38,-404.15 804.38,-404.15"/>
<polygon fill="black" stroke="black" points="807.88,-407.97 804.38,-397.97 800.88,-407.97 807.88,-407.97"/>
</g>
<!-- [root] aws_subnet.public_b (expand) -->
<g id="node35" class="node">
<title>[root] aws_subnet.public_b (expand)</title>
<polygon fill="none" stroke="black" points="1025.88,-396 895.88,-396 895.88,-360 1025.88,-360 1025.88,-396"/>
<text xml:space="preserve" text-anchor="middle" x="960.88" y="-372.95" font-family="Times,serif" font-size="14.00">aws_subnet.public_b</text>
</g>
<!-- [root] aws_route_table_association.public_b (expand)&#45;&gt;[root] aws_subnet.public_b (expand) -->
<g id="edge34" class="edge">
<title>[root] aws_route_table_association.public_b (expand)&#45;&gt;[root] aws_subnet.public_b (expand)</title>
<path fill="none" stroke="black" d="M994.17,-431.83C994.17,-431.83 994.17,-407.93 994.17,-407.93"/>
<polygon fill="black" stroke="black" points="997.67,-407.93 994.17,-397.93 990.67,-407.93 997.67,-407.93"/>
</g>
<!-- [root] aws_route_table_association.public_c -->
<g id="node26" class="node">
<title>[root] aws_route_table_association.public_c</title>
<polygon fill="none" stroke="black" points="505.62,-612 284.12,-612 284.12,-576 505.62,-576 505.62,-612"/>
<text xml:space="preserve" text-anchor="middle" x="394.88" y="-588.95" font-family="Times,serif" font-size="14.00">aws_route_table_association.public_c</text>
</g>
<!-- [root] aws_route_table_association.public_c (expand) -->
<g id="node27" class="node">
<title>[root] aws_route_table_association.public_c (expand)</title>
<polygon fill="none" stroke="black" points="470.62,-468 249.12,-468 249.12,-432 470.62,-432 470.62,-468"/>
<text xml:space="preserve" text-anchor="middle" x="359.88" y="-444.95" font-family="Times,serif" font-size="14.00">aws_route_table_association.public_c</text>
</g>
<!-- [root] aws_route_table_association.public_c&#45;&gt;[root] aws_route_table_association.public_c (expand) -->
<g id="edge38" class="edge">
<title>[root] aws_route_table_association.public_c&#45;&gt;[root] aws_route_table_association.public_c (expand)</title>
<path fill="none" stroke="black" d="M379.69,-575.76C379.69,-575.76 379.69,-479.6 379.69,-479.6"/>
<polygon fill="black" stroke="black" points="383.19,-479.6 379.69,-469.6 376.19,-479.6 383.19,-479.6"/>
</g>
<!-- [root] aws_route_table_association.public_c (expand)&#45;&gt;[root] aws_route_table.public -->
<g id="edge36" class="edge">
<title>[root] aws_route_table_association.public_c (expand)&#45;&gt;[root] aws_route_table.public</title>
<path fill="none" stroke="black" d="M426.38,-431.54C426.38,-426.8 426.38,-423 426.38,-423 426.38,-423 733.38,-423 733.38,-423 733.38,-423 733.38,-407.82 733.38,-407.82"/>
<polygon fill="black" stroke="black" points="736.88,-407.82 733.38,-397.82 729.88,-407.82 736.88,-407.82"/>
</g>
<!-- [root] aws_route_table_association.public_c (expand)&#45;&gt;[root] aws_subnet.public_c (expand) -->
<g id="edge37" class="edge">
<title>[root] aws_route_table_association.public_c (expand)&#45;&gt;[root] aws_subnet.public_c (expand)</title>
<path fill="none" stroke="black" d="M448.5,-431.58C448.5,-431.58 448.5,-263.88 448.5,-263.88"/>
<polygon fill="black" stroke="black" points="452,-263.88 448.5,-253.88 445,-263.88 452,-263.88"/>
</g>
<!-- [root] aws_subnet.private_data_a (expand)&#45;&gt;[root] aws_vpc.main -->
<g id="edge39" class="edge">
<title>[root] aws_subnet.private_data_a (expand)&#45;&gt;[root] aws_vpc.main</title>
<path fill="none" stroke="black" d="M1081.41,-240C1057.74,-240 1038.12,-240 1038.12,-240 1038.12,-240 1038.12,-192 1038.12,-192"/>
<polygon fill="black" stroke="black" points="1041.63,-192 1038.13,-182 1034.63,-192 1041.63,-192"/>
</g>
<!-- [root] aws_subnet.private_data_b (expand)&#45;&gt;[root] aws_vpc.main -->
<g id="edge40" class="edge">
<title>[root] aws_subnet.private_data_b (expand)&#45;&gt;[root] aws_vpc.main</title>
<path fill="none" stroke="black" d="M1488.88,-287.76C1488.88,-249.01 1488.88,-162 1488.88,-162 1488.88,-162 1056.01,-162 1056.01,-162"/>
<polygon fill="black" stroke="black" points="1056.01,-158.5 1046.01,-162 1056.01,-165.5 1056.01,-158.5"/>
</g>
<!-- [root] aws_subnet.private_data_c (expand)&#45;&gt;[root] aws_vpc.main -->
<g id="edge41" class="edge">
<title>[root] aws_subnet.private_data_c (expand)&#45;&gt;[root] aws_vpc.main</title>
<path fill="none" stroke="black" d="M1715.88,-287.54C1715.88,-246.85 1715.88,-153 1715.88,-153 1715.88,-153 1056.12,-153 1056.12,-153"/>
<polygon fill="black" stroke="black" points="1056.12,-149.5 1046.12,-153 1056.12,-156.5 1056.12,-149.5"/>
</g>
<!-- [root] aws_subnet.private_egress_a (expand)&#45;&gt;[root] aws_vpc.main -->
<g id="edge42" class="edge">
<title>[root] aws_subnet.private_egress_a (expand)&#45;&gt;[root] aws_vpc.main</title>
<path fill="none" stroke="black" d="M260.88,-215.7C260.88,-203.24 260.88,-189 260.88,-189 260.88,-189 955.94,-189 955.94,-189 955.94,-189 955.94,-188.15 955.94,-188.15"/>
<polygon fill="black" stroke="black" points="959.44,-191.97 955.94,-181.97 952.44,-191.97 959.44,-191.97"/>
</g>
<!-- [root] aws_subnet.private_egress_b (expand)&#45;&gt;[root] aws_vpc.main -->
<g id="edge43" class="edge">
<title>[root] aws_subnet.private_egress_b (expand)&#45;&gt;[root] aws_vpc.main</title>
<path fill="none" stroke="black" d="M726,-215.54C726,-210.8 726,-207 726,-207 726,-207 968.56,-207 968.56,-207 968.56,-207 968.56,-191.82 968.56,-191.82"/>
<polygon fill="black" stroke="black" points="972.06,-191.82 968.56,-181.82 965.06,-191.82 972.06,-191.82"/>
</g>
<!-- [root] aws_subnet.private_egress_c (expand)&#45;&gt;[root] aws_vpc.main -->
<g id="edge44" class="edge">
<title>[root] aws_subnet.private_egress_c (expand)&#45;&gt;[root] aws_vpc.main</title>
<path fill="none" stroke="black" d="M1253.62,-431.58C1253.62,-422.72 1253.62,-414 1253.62,-414 1253.62,-414 1032,-414 1032,-414 1032,-414 1032,-191.64 1032,-191.64"/>
<polygon fill="black" stroke="black" points="1035.5,-191.64 1032,-181.64 1028.5,-191.64 1035.5,-191.64"/>
</g>
<!-- [root] aws_subnet.public_a (expand)&#45;&gt;[root] aws_vpc.main -->
<g id="edge45" class="edge">
<title>[root] aws_subnet.public_a (expand)&#45;&gt;[root] aws_vpc.main</title>
<path fill="none" stroke="black" d="M981.19,-287.76C981.19,-287.76 981.19,-191.6 981.19,-191.6"/>
<polygon fill="black" stroke="black" points="984.69,-191.6 981.19,-181.6 977.69,-191.6 984.69,-191.6"/>
</g>
<!-- [root] aws_subnet.public_b (expand)&#45;&gt;[root] aws_vpc.main -->
<g id="edge46" class="edge">
<title>[root] aws_subnet.public_b (expand)&#45;&gt;[root] aws_vpc.main</title>
<path fill="none" stroke="black" d="M1006.69,-359.58C1006.69,-359.58 1006.69,-191.88 1006.69,-191.88"/>
<polygon fill="black" stroke="black" points="1010.19,-191.88 1006.69,-181.88 1003.19,-191.88 1010.19,-191.88"/>
</g>
<!-- [root] aws_subnet.public_c (expand)&#45;&gt;[root] aws_vpc.main -->
<g id="edge47" class="edge">
<title>[root] aws_subnet.public_c (expand)&#45;&gt;[root] aws_vpc.main</title>
<path fill="none" stroke="black" d="M528.97,-215.58C528.97,-206.72 528.97,-198 528.97,-198 528.97,-198 962.25,-198 962.25,-198 962.25,-198 962.25,-191.94 962.25,-191.94"/>
<polygon fill="black" stroke="black" points="965.75,-191.94 962.25,-181.94 958.75,-191.94 965.75,-191.94"/>
</g>
<!-- [root] aws_vpc.main (expand) -->
<g id="node38" class="node">
<title>[root] aws_vpc.main (expand)</title>
<polygon fill="none" stroke="black" points="883.25,-108 788.5,-108 788.5,-72 883.25,-72 883.25,-108"/>
<text xml:space="preserve" text-anchor="middle" x="835.88" y="-84.95" font-family="Times,serif" font-size="14.00">aws_vpc.main</text>
</g>
<!-- [root] aws_vpc.main&#45;&gt;[root] aws_vpc.main (expand) -->
<g id="edge49" class="edge">
<title>[root] aws_vpc.main&#45;&gt;[root] aws_vpc.main (expand)</title>
<path fill="none" stroke="black" d="M949.01,-162C901.55,-162 835.88,-162 835.88,-162 835.88,-162 835.88,-119.68 835.88,-119.68"/>
<polygon fill="black" stroke="black" points="839.38,-119.68 835.88,-109.68 832.38,-119.68 839.38,-119.68"/>
</g>
<!-- [root] aws_vpc.main (expand)&#45;&gt;[root] provider[&quot;registry.terraform.io/hashicorp/aws&quot;] -->
<g id="edge48" class="edge">
<title>[root] aws_vpc.main (expand)&#45;&gt;[root] provider[&quot;registry.terraform.io/hashicorp/aws&quot;]</title>
<path fill="none" stroke="black" d="M835.88,-71.83C835.88,-71.83 835.88,-44.52 835.88,-44.52"/>
<polygon fill="black" stroke="black" points="839.38,-44.52 835.88,-34.52 832.38,-44.52 839.38,-44.52"/>
</g>
<!-- [root] provider[&quot;registry.terraform.io/hashicorp/aws&quot;] (close) -->
<g id="node40" class="node">
<title>[root] provider[&quot;registry.terraform.io/hashicorp/aws&quot;] (close)</title>
<ellipse fill="none" stroke="black" cx="978.88" cy="-666" rx="238.16" ry="18"/>
<text xml:space="preserve" text-anchor="middle" x="978.88" y="-660.95" font-family="Times,serif" font-size="14.00">[root] provider[&quot;registry.terraform.io/hashicorp/aws&quot;] (close)</text>
</g>
<!-- [root] provider[&quot;registry.terraform.io/hashicorp/aws&quot;] (close)&#45;&gt;[root] aws_route_table_association.private_data_a -->
<g id="edge50" class="edge">
<title>[root] provider[&quot;registry.terraform.io/hashicorp/aws&quot;] (close)&#45;&gt;[root] aws_route_table_association.private_data_a</title>
<path fill="none" stroke="black" d="M1187.14,-657C1284.84,-657 1380.12,-657 1380.12,-657 1380.12,-657 1380.12,-552 1380.12,-552"/>
<polygon fill="black" stroke="black" points="1383.63,-552 1380.13,-542 1376.63,-552 1383.63,-552"/>
</g>
<!-- [root] provider[&quot;registry.terraform.io/hashicorp/aws&quot;] (close)&#45;&gt;[root] aws_route_table_association.private_data_b -->
<g id="edge51" class="edge">
<title>[root] provider[&quot;registry.terraform.io/hashicorp/aws&quot;] (close)&#45;&gt;[root] aws_route_table_association.private_data_b</title>
<path fill="none" stroke="black" d="M1217.52,-666C1368.7,-666 1535.88,-666 1535.88,-666 1535.88,-666 1535.88,-623.68 1535.88,-623.68"/>
<polygon fill="black" stroke="black" points="1539.38,-623.68 1535.88,-613.68 1532.38,-623.68 1539.38,-623.68"/>
</g>
<!-- [root] provider[&quot;registry.terraform.io/hashicorp/aws&quot;] (close)&#45;&gt;[root] aws_route_table_association.private_data_c -->
<g id="edge52" class="edge">
<title>[root] provider[&quot;registry.terraform.io/hashicorp/aws&quot;] (close)&#45;&gt;[root] aws_route_table_association.private_data_c</title>
<path fill="none" stroke="black" d="M1187.14,-675C1418.78,-675 1760.81,-675 1760.81,-675 1760.81,-675 1760.81,-551.97 1760.81,-551.97"/>
<polygon fill="black" stroke="black" points="1764.31,-551.97 1760.81,-541.97 1757.31,-551.97 1764.31,-551.97"/>
</g>
<!-- [root] provider[&quot;registry.terraform.io/hashicorp/aws&quot;] (close)&#45;&gt;[root] aws_route_table_association.private_egress_a -->
<g id="edge53" class="edge">
<title>[root] provider[&quot;registry.terraform.io/hashicorp/aws&quot;] (close)&#45;&gt;[root] aws_route_table_association.private_egress_a</title>
<path fill="none" stroke="black" d="M753.27,-672C502.66,-672 132.88,-672 132.88,-672 132.88,-672 132.88,-624 132.88,-624"/>
<polygon fill="black" stroke="black" points="136.38,-624 132.88,-614 129.38,-624 136.38,-624"/>
</g>
<!-- [root] provider[&quot;registry.terraform.io/hashicorp/aws&quot;] (close)&#45;&gt;[root] aws_route_table_association.private_egress_b -->
<g id="edge54" class="edge">
<title>[root] provider[&quot;registry.terraform.io/hashicorp/aws&quot;] (close)&#45;&gt;[root] aws_route_table_association.private_egress_b</title>
<path fill="none" stroke="black" d="M765.42,-657.74C765.42,-657.74 765.42,-623.84 765.42,-623.84"/>
<polygon fill="black" stroke="black" points="768.92,-623.84 765.42,-613.84 761.92,-623.84 768.92,-623.84"/>
</g>
<!-- [root] provider[&quot;registry.terraform.io/hashicorp/aws&quot;] (close)&#45;&gt;[root] aws_route_table_association.private_egress_c -->
<g id="edge55" class="edge">
<title>[root] provider[&quot;registry.terraform.io/hashicorp/aws&quot;] (close)&#45;&gt;[root] aws_route_table_association.private_egress_c</title>
<path fill="none" stroke="black" d="M978.88,-647.83C978.88,-647.83 978.88,-623.93 978.88,-623.93"/>
<polygon fill="black" stroke="black" points="982.38,-623.93 978.88,-613.93 975.38,-623.93 982.38,-623.93"/>
</g>
<!-- [root] provider[&quot;registry.terraform.io/hashicorp/aws&quot;] (close)&#45;&gt;[root] aws_route_table_association.public_a -->
<g id="edge56" class="edge">
<title>[root] provider[&quot;registry.terraform.io/hashicorp/aws&quot;] (close)&#45;&gt;[root] aws_route_table_association.public_a</title>
<path fill="none" stroke="black" d="M818.06,-652.45C818.06,-652.45 818.06,-551.6 818.06,-551.6"/>
<polygon fill="black" stroke="black" points="821.56,-551.6 818.06,-541.6 814.56,-551.6 821.56,-551.6"/>
</g>
<!-- [root] provider[&quot;registry.terraform.io/hashicorp/aws&quot;] (close)&#45;&gt;[root] aws_route_table_association.public_b -->
<g id="edge57" class="edge">
<title>[root] provider[&quot;registry.terraform.io/hashicorp/aws&quot;] (close)&#45;&gt;[root] aws_route_table_association.public_b</title>
<path fill="none" stroke="black" d="M1173.39,-655.38C1173.39,-655.38 1173.39,-624.01 1173.39,-624.01"/>
<polygon fill="black" stroke="black" points="1176.89,-624.01 1173.39,-614.01 1169.89,-624.01 1176.89,-624.01"/>
</g>
<!-- [root] provider[&quot;registry.terraform.io/hashicorp/aws&quot;] (close)&#45;&gt;[root] aws_route_table_association.public_c -->
<g id="edge58" class="edge">
<title>[root] provider[&quot;registry.terraform.io/hashicorp/aws&quot;] (close)&#45;&gt;[root] aws_route_table_association.public_c</title>
<path fill="none" stroke="black" d="M753.5,-660C589.08,-660 394.88,-660 394.88,-660 394.88,-660 394.88,-623.9 394.88,-623.9"/>
<polygon fill="black" stroke="black" points="398.38,-623.9 394.88,-613.9 391.38,-623.9 398.38,-623.9"/>
</g>
<!-- [root] root -->
<g id="node41" class="node">
<title>[root] root</title>
<ellipse fill="none" stroke="black" cx="978.88" cy="-738" rx="49.3" ry="18"/>
<text xml:space="preserve" text-anchor="middle" x="978.88" y="-732.95" font-family="Times,serif" font-size="14.00">[root] root</text>
</g>
<!-- [root] root&#45;&gt;[root] provider[&quot;registry.terraform.io/hashicorp/aws&quot;] (close) -->
<g id="edge59" class="edge">
<title>[root] root&#45;&gt;[root] provider[&quot;registry.terraform.io/hashicorp/aws&quot;] (close)</title>
<path fill="none" stroke="black" d="M978.88,-719.83C978.88,-719.83 978.88,-695.93 978.88,-695.93"/>
<polygon fill="black" stroke="black" points="982.38,-695.93 978.88,-685.93 975.38,-695.93 982.38,-695.93"/>
</g>
</g>
</svg>
