<?xml version="1.0" encoding="UTF-8" standalone="no"?>
<!DOCTYPE svg PUBLIC "-//W3C//DTD SVG 1.1//EN"
 "http://www.w3.org/Graphics/SVG/1.1/DTD/svg11.dtd">
<!-- Generated by graphviz version 14.1.0 (20251206.1807)
 -->
<!-- Pages: 1 -->
<svg width="1890pt" height="764pt"
 viewBox="0.00 0.00 1890.00 764.00" xmlns="http://www.w3.org/2000/svg" xmlns:xlink="http://www.w3.org/1999/xlink">
<g id="graph0" class="graph" transform="scale(1 1) rotate(0) translate(4 760)">
<polygon fill="white" stroke="none" points="-4,4 -4,-760 1886.12,-760 1886.12,4 -4,4"/>
<!-- [root] aws_eip.main (expand) -->
<g id="node1" class="node">
<title>[root] aws_eip.main (expand)</title>
<polygon fill="none" stroke="black" points="779.75,-180 688,-180 688,-144 779.75,-144 779.75,-180"/>
<text xml:space="preserve" text-anchor="middle" x="733.88" y="-156.95" font-family="Times,serif" font-size="14.00">aws_eip.main</text>
</g>
<!-- [root] provider[&quot;registry.terraform.io/hashicorp/aws&quot;] -->
<g id="node39" class="node">
<title>[root] provider[&quot;registry.terraform.io/hashicorp/aws&quot;]</title>
<polygon fill="none" stroke="black" points="788.88,-36 524.44,-18 788.87,0 1053.31,-18 788.88,-36"/>
<text xml:space="preserve" text-anchor="middle" x="788.88" y="-12.95" font-family="Times,serif" font-size="14.00">provider[&quot;registry.terraform.io/hashicorp/aws&quot;]</text>
</g>
<!-- [root] aws_eip.main (expand)&#45;&gt;[root] provider[&quot;registry.terraform.io/hashicorp/aws&quot;] -->
<g id="edge1" class="edge">
<title>[root] aws_eip.main (expand)&#45;&gt;[root] provider[&quot;registry.terraform.io/hashicorp/aws&quot;]</title>
<path fill="none" stroke="black" d="M740.62,-143.59C750.04,-119.27 767.23,-74.89 778.34,-46.19"/>
<polygon fill="black" stroke="black" points="781.52,-47.67 781.87,-37.08 775,-45.14 781.52,-47.67"/>
</g>
<!-- [root] aws_internet_gateway.main (expand) -->
<g id="node2" class="node">
<title>[root] aws_internet_gateway.main (expand)</title>
<polygon fill="none" stroke="black" points="949.62,-252 782.12,-252 782.12,-216 949.62,-216 949.62,-252"/>
<text xml:space="preserve" text-anchor="middle" x="865.88" y="-228.95" font-family="Times,serif" font-size="14.00">aws_internet_gateway.main</text>
</g>
<!-- [root] aws_vpc.main -->
<g id="node37" class="node">
<title>[root] aws_vpc.main</title>
<polygon fill="none" stroke="black" points="1044.25,-180 949.5,-180 949.5,-144 1044.25,-144 1044.25,-180"/>
<text xml:space="preserve" text-anchor="middle" x="996.88" y="-156.95" font-family="Times,serif" font-size="14.00">aws_vpc.main</text>
</g>
<!-- [root] aws_internet_gateway.main (expand)&#45;&gt;[root] aws_vpc.main -->
<g id="edge2" class="edge">
<title>[root] aws_internet_gateway.main (expand)&#45;&gt;[root] aws_vpc.main</title>
<path fill="none" stroke="black" d="M898.59,-215.52C915.52,-206.47 936.39,-195.32 954.54,-185.62"/>
<polygon fill="black" stroke="black" points="956.07,-188.77 963.24,-180.97 952.77,-182.6 956.07,-188.77"/>
</g>
<!-- [root] aws_nat_gateway.main (expand) -->
<g id="node3" class="node">
<title>[root] aws_nat_gateway.main (expand)</title>
<polygon fill="none" stroke="black" points="633.25,-324 490.5,-324 490.5,-288 633.25,-288 633.25,-324"/>
<text xml:space="preserve" text-anchor="middle" x="561.88" y="-300.95" font-family="Times,serif" font-size="14.00">aws_nat_gateway.main</text>
</g>
<!-- [root] aws_nat_gateway.main (expand)&#45;&gt;[root] aws_eip.main (expand) -->
<g id="edge3" class="edge">
<title>[root] aws_nat_gateway.main (expand)&#45;&gt;[root] aws_eip.main (expand)</title>
<path fill="none" stroke="black" d="M560.84,-287.73C560.61,-268 563.3,-235.89 580.88,-216 605.02,-188.68 643.98,-175.44 676.54,-169.02"/>
<polygon fill="black" stroke="black" points="677.03,-172.49 686.26,-167.29 675.8,-165.6 677.03,-172.49"/>
</g>
<!-- [root] aws_nat_gateway.main (expand)&#45;&gt;[root] aws_internet_gateway.main (expand) -->
<g id="edge4" class="edge">
<title>[root] aws_nat_gateway.main (expand)&#45;&gt;[root] aws_internet_gateway.main (expand)</title>
<path fill="none" stroke="black" d="M633.53,-288.5C676.99,-278.49 732.75,-265.65 778.75,-255.06"/>
<polygon fill="black" stroke="black" points="779.49,-258.48 788.44,-252.83 777.91,-251.66 779.49,-258.48"/>
</g>
<!-- [root] aws_subnet.public_c (expand) -->
<g id="node36" class="node">
<title>[root] aws_subnet.public_c (expand)</title>
<polygon fill="none" stroke="black" points="533.5,-252 404.25,-252 404.25,-216 533.5,-216 533.5,-252"/>
<text xml:space="preserve" text-anchor="middle" x="468.88" y="-228.95" font-family="Times,serif" font-size="14.00">aws_subnet.public_c</text>
</g>
<!-- [root] aws_nat_gateway.main (expand)&#45;&gt;[root] aws_subnet.public_c (expand) -->
<g id="edge5" class="edge">
<title>[root] aws_nat_gateway.main (expand)&#45;&gt;[root] aws_subnet.public_c (expand)</title>
<path fill="none" stroke="black" d="M538.89,-287.7C527.48,-279.11 513.52,-268.61 501.08,-259.24"/>
<polygon fill="black" stroke="black" points="503.23,-256.47 493.13,-253.26 499.02,-262.07 503.23,-256.47"/>
</g>
<!-- [root] aws_route_table.local -->
<g id="node4" class="node">
<title>[root] aws_route_table.local</title>
<polygon fill="none" stroke="black" points="1389.12,-324 1254.62,-324 1254.62,-288 1389.12,-288 1389.12,-324"/>
<text xml:space="preserve" text-anchor="middle" x="1321.88" y="-300.95" font-family="Times,serif" font-size="14.00">aws_route_table.local</text>
</g>
<!-- [root] aws_route_table.local (expand) -->
<g id="node5" class="node">
<title>[root] aws_route_table.local (expand)</title>
<polygon fill="none" stroke="black" points="1396.12,-252 1261.62,-252 1261.62,-216 1396.12,-216 1396.12,-252"/>
<text xml:space="preserve" text-anchor="middle" x="1328.88" y="-228.95" font-family="Times,serif" font-size="14.00">aws_route_table.local</text>
</g>
<!-- [root] aws_route_table.local&#45;&gt;[root] aws_route_table.local (expand) -->
<g id="edge7" class="edge">
<title>[root] aws_route_table.local&#45;&gt;[root] aws_route_table.local (expand)</title>
<path fill="none" stroke="black" d="M1323.61,-287.7C1324.33,-280.41 1325.2,-271.73 1326.02,-263.54"/>
<polygon fill="black" stroke="black" points="1329.5,-263.91 1327.01,-253.61 1322.54,-263.21 1329.5,-263.91"/>
</g>
<!-- [root] aws_route_table.local (expand)&#45;&gt;[root] aws_vpc.main -->
<g id="edge6" class="edge">
<title>[root] aws_route_table.local (expand)&#45;&gt;[root] aws_vpc.main</title>
<path fill="none" stroke="black" d="M1261.34,-217.84C1258.48,-217.21 1255.65,-216.6 1252.88,-216 1185.29,-201.45 1107.5,-185.45 1055.57,-174.88"/>
<polygon fill="black" stroke="black" points="1056.56,-171.5 1046.06,-172.94 1055.16,-178.36 1056.56,-171.5"/>
</g>
<!-- [root] aws_route_table.private -->
<g id="node6" class="node">
<title>[root] aws_route_table.private</title>
<polygon fill="none" stroke="black" points="634.75,-468 489,-468 489,-432 634.75,-432 634.75,-468"/>
<text xml:space="preserve" text-anchor="middle" x="561.88" y="-444.95" font-family="Times,serif" font-size="14.00">aws_route_table.private</text>
</g>
<!-- [root] aws_route_table.private (expand) -->
<g id="node7" class="node">
<title>[root] aws_route_table.private (expand)</title>
<polygon fill="none" stroke="black" points="634.75,-396 489,-396 489,-360 634.75,-360 634.75,-396"/>
<text xml:space="preserve" text-anchor="middle" x="561.88" y="-372.95" font-family="Times,serif" font-size="14.00">aws_route_table.private</text>
</g>
<!-- [root] aws_route_table.private&#45;&gt;[root] aws_route_table.private (expand) -->
<g id="edge9" class="edge">
<title>[root] aws_route_table.private&#45;&gt;[root] aws_route_table.private (expand)</title>
<path fill="none" stroke="black" d="M561.88,-431.7C561.88,-424.41 561.88,-415.73 561.88,-407.54"/>
<polygon fill="black" stroke="black" points="565.38,-407.62 561.88,-397.62 558.38,-407.62 565.38,-407.62"/>
</g>
<!-- [root] aws_route_table.private (expand)&#45;&gt;[root] aws_nat_gateway.main (expand) -->
<g id="edge8" class="edge">
<title>[root] aws_route_table.private (expand)&#45;&gt;[root] aws_nat_gateway.main (expand)</title>
<path fill="none" stroke="black" d="M561.88,-359.7C561.88,-352.41 561.88,-343.73 561.88,-335.54"/>
<polygon fill="black" stroke="black" points="565.38,-335.62 561.88,-325.62 558.38,-335.62 565.38,-335.62"/>
</g>
<!-- [root] aws_route_table.public -->
<g id="node8" class="node">
<title>[root] aws_route_table.public</title>
<polygon fill="none" stroke="black" points="839.88,-396 697.88,-396 697.88,-360 839.88,-360 839.88,-396"/>
<text xml:space="preserve" text-anchor="middle" x="768.88" y="-372.95" font-family="Times,serif" font-size="14.00">aws_route_table.public</text>
</g>
<!-- [root] aws_route_table.public (expand) -->
<g id="node9" class="node">
<title>[root] aws_route_table.public (expand)</title>
<polygon fill="none" stroke="black" points="839.88,-324 697.88,-324 697.88,-288 839.88,-288 839.88,-324"/>
<text xml:space="preserve" text-anchor="middle" x="768.88" y="-300.95" font-family="Times,serif" font-size="14.00">aws_route_table.public</text>
</g>
<!-- [root] aws_route_table.public&#45;&gt;[root] aws_route_table.public (expand) -->
<g id="edge11" class="edge">
<title>[root] aws_route_table.public&#45;&gt;[root] aws_route_table.public (expand)</title>
<path fill="none" stroke="black" d="M768.88,-359.7C768.88,-352.41 768.88,-343.73 768.88,-335.54"/>
<polygon fill="black" stroke="black" points="772.38,-335.62 768.88,-325.62 765.38,-335.62 772.38,-335.62"/>
</g>
<!-- [root] aws_route_table.public (expand)&#45;&gt;[root] aws_internet_gateway.main (expand) -->
<g id="edge10" class="edge">
<title>[root] aws_route_table.public (expand)&#45;&gt;[root] aws_internet_gateway.main (expand)</title>
<path fill="none" stroke="black" d="M792.85,-287.7C804.86,-279.03 819.59,-268.4 832.67,-258.96"/>
<polygon fill="black" stroke="black" points="834.55,-261.92 840.61,-253.23 830.45,-256.25 834.55,-261.92"/>
</g>
<!-- [root] aws_route_table_association.private_data_a -->
<g id="node10" class="node">
<title>[root] aws_route_table_association.private_data_a</title>
<polygon fill="none" stroke="black" points="1508.12,-540 1253.62,-540 1253.62,-504 1508.12,-504 1508.12,-540"/>
<text xml:space="preserve" text-anchor="middle" x="1380.88" y="-516.95" font-family="Times,serif" font-size="14.00">aws_route_table_association.private_data_a</text>
</g>
<!-- [root] aws_route_table_association.private_data_a (expand) -->
<g id="node11" class="node">
<title>[root] aws_route_table_association.private_data_a (expand)</title>
<polygon fill="none" stroke="black" points="1336.12,-396 1081.62,-396 1081.62,-360 1336.12,-360 1336.12,-396"/>
<text xml:space="preserve" text-anchor="middle" x="1208.88" y="-372.95" font-family="Times,serif" font-size="14.00">aws_route_table_association.private_data_a</text>
</g>
<!-- [root] aws_route_table_association.private_data_a&#45;&gt;[root] aws_route_table_association.private_data_a (expand) -->
<g id="edge14" class="edge">
<title>[root] aws_route_table_association.private_data_a&#45;&gt;[root] aws_route_table_association.private_data_a (expand)</title>
<path fill="none" stroke="black" d="M1380.1,-503.67C1378.32,-483.88 1372.51,-451.71 1353.88,-432 1340.94,-418.33 1324.2,-408.16 1306.7,-400.62"/>
<polygon fill="black" stroke="black" points="1308.33,-397.5 1297.74,-397.03 1305.73,-404 1308.33,-397.5"/>
</g>
<!-- [root] aws_route_table_association.private_data_a (expand)&#45;&gt;[root] aws_route_table.local -->
<g id="edge12" class="edge">
<title>[root] aws_route_table_association.private_data_a (expand)&#45;&gt;[root] aws_route_table.local</title>
<path fill="none" stroke="black" d="M1237.1,-359.52C1251.36,-350.68 1268.87,-339.84 1284.26,-330.3"/>
<polygon fill="black" stroke="black" points="1286.07,-333.3 1292.72,-325.06 1282.38,-327.35 1286.07,-333.3"/>
</g>
<!-- [root] aws_subnet.private_data_a (expand) -->
<g id="node28" class="node">
<title>[root] aws_subnet.private_data_a (expand)</title>
<polygon fill="none" stroke="black" points="1244,-252 1081.75,-252 1081.75,-216 1244,-216 1244,-252"/>
<text xml:space="preserve" text-anchor="middle" x="1162.88" y="-228.95" font-family="Times,serif" font-size="14.00">aws_subnet.private_data_a</text>
</g>
<!-- [root] aws_route_table_association.private_data_a (expand)&#45;&gt;[root] aws_subnet.private_data_a (expand) -->
<g id="edge13" class="edge">
<title>[root] aws_route_table_association.private_data_a (expand)&#45;&gt;[root] aws_subnet.private_data_a (expand)</title>
<path fill="none" stroke="black" d="M1203.23,-359.59C1195.43,-335.5 1181.26,-291.75 1171.96,-263.03"/>
<polygon fill="black" stroke="black" points="1175.3,-261.99 1168.88,-253.55 1168.64,-264.14 1175.3,-261.99"/>
</g>
<!-- [root] aws_route_table_association.private_data_b -->
<g id="node12" class="node">
<title>[root] aws_route_table_association.private_data_b</title>
<polygon fill="none" stroke="black" points="1663.5,-612 1408.25,-612 1408.25,-576 1663.5,-576 1663.5,-612"/>
<text xml:space="preserve" text-anchor="middle" x="1535.88" y="-588.95" font-family="Times,serif" font-size="14.00">aws_route_table_association.private_data_b</text>
</g>
<!-- [root] aws_route_table_association.private_data_b (expand) -->
<g id="node13" class="node">
<title>[root] aws_route_table_association.private_data_b (expand)</title>
<polygon fill="none" stroke="black" points="1609.5,-396 1354.25,-396 1354.25,-360 1609.5,-360 1609.5,-396"/>
<text xml:space="preserve" text-anchor="middle" x="1481.88" y="-372.95" font-family="Times,serif" font-size="14.00">aws_route_table_association.private_data_b</text>
</g>
<!-- [root] aws_route_table_association.private_data_b&#45;&gt;[root] aws_route_table_association.private_data_b (expand) -->
<g id="edge17" class="edge">
<title>[root] aws_route_table_association.private_data_b&#45;&gt;[root] aws_route_table_association.private_data_b (expand)</title>
<path fill="none" stroke="black" d="M1532.48,-575.53C1528.91,-557.53 1522.96,-528.7 1516.88,-504 1508.63,-470.57 1497.76,-432.51 1490.33,-407.26"/>
<polygon fill="black" stroke="black" points="1493.71,-406.35 1487.52,-397.75 1487,-408.33 1493.71,-406.35"/>
</g>
<!-- [root] aws_route_table_association.private_data_b (expand)&#45;&gt;[root] aws_route_table.local -->
<g id="edge15" class="edge">
<title>[root] aws_route_table_association.private_data_b (expand)&#45;&gt;[root] aws_route_table.local</title>
<path fill="none" stroke="black" d="M1441.91,-359.52C1420.74,-350.25 1394.52,-338.78 1371.99,-328.93"/>
<polygon fill="black" stroke="black" points="1373.56,-325.79 1362.99,-324.99 1370.75,-332.2 1373.56,-325.79"/>
</g>
<!-- [root] aws_subnet.private_data_b (expand) -->
<g id="node29" class="node">
<title>[root] aws_subnet.private_data_b (expand)</title>
<polygon fill="none" stroke="black" points="1570.38,-324 1407.38,-324 1407.38,-288 1570.38,-288 1570.38,-324"/>
<text xml:space="preserve" text-anchor="middle" x="1488.88" y="-300.95" font-family="Times,serif" font-size="14.00">aws_subnet.private_data_b</text>
</g>
<!-- [root] aws_route_table_association.private_data_b (expand)&#45;&gt;[root] aws_subnet.private_data_b (expand) -->
<g id="edge16" class="edge">
<title>[root] aws_route_table_association.private_data_b (expand)&#45;&gt;[root] aws_subnet.private_data_b (expand)</title>
<path fill="none" stroke="black" d="M1483.61,-359.7C1484.33,-352.41 1485.2,-343.73 1486.02,-335.54"/>
<polygon fill="black" stroke="black" points="1489.5,-335.91 1487.01,-325.61 1482.54,-335.21 1489.5,-335.91"/>
</g>
<!-- [root] aws_route_table_association.private_data_c -->
<g id="node14" class="node">
<title>[root] aws_route_table_association.private_data_c</title>
<polygon fill="none" stroke="black" points="1858.12,-540 1603.62,-540 1603.62,-504 1858.12,-504 1858.12,-540"/>
<text xml:space="preserve" text-anchor="middle" x="1730.88" y="-516.95" font-family="Times,serif" font-size="14.00">aws_route_table_association.private_data_c</text>
</g>
<!-- [root] aws_route_table_association.private_data_c (expand) -->
<g id="node15" class="node">
<title>[root] aws_route_table_association.private_data_c (expand)</title>
<polygon fill="none" stroke="black" points="1882.12,-396 1627.62,-396 1627.62,-360 1882.12,-360 1882.12,-396"/>
<text xml:space="preserve" text-anchor="middle" x="1754.88" y="-372.95" font-family="Times,serif" font-size="14.00">aws_route_table_association.private_data_c</text>
</g>
<!-- [root] aws_route_table_association.private_data_c&#45;&gt;[root] aws_route_table_association.private_data_c (expand) -->
<g id="edge20" class="edge">
<title>[root] aws_route_table_association.private_data_c&#45;&gt;[root] aws_route_table_association.private_data_c (expand)</title>
<path fill="none" stroke="black" d="M1733.82,-503.59C1737.87,-479.61 1745.22,-436.14 1750.07,-407.42"/>
<polygon fill="black" stroke="black" points="1753.52,-408.05 1751.73,-397.6 1746.61,-406.88 1753.52,-408.05"/>
</g>
<!-- [root] aws_route_table_association.private_data_c (expand)&#45;&gt;[root] aws_route_table.local -->
<g id="edge18" class="edge">
<title>[root] aws_route_table_association.private_data_c (expand)&#45;&gt;[root] aws_route_table.local</title>
<path fill="none" stroke="black" d="M1627.24,-360.19C1562.17,-351.09 1481.57,-339.01 1400.37,-324.2"/>
<polygon fill="black" stroke="black" points="1401.38,-320.83 1390.92,-322.47 1400.12,-327.72 1401.38,-320.83"/>
</g>
<!-- [root] aws_subnet.private_data_c (expand) -->
<g id="node30" class="node">
<title>[root] aws_subnet.private_data_c (expand)</title>
<polygon fill="none" stroke="black" points="1797,-324 1634.75,-324 1634.75,-288 1797,-288 1797,-324"/>
<text xml:space="preserve" text-anchor="middle" x="1715.88" y="-300.95" font-family="Times,serif" font-size="14.00">aws_subnet.private_data_c</text>
</g>
<!-- [root] aws_route_table_association.private_data_c (expand)&#45;&gt;[root] aws_subnet.private_data_c (expand) -->
<g id="edge19" class="edge">
<title>[root] aws_route_table_association.private_data_c (expand)&#45;&gt;[root] aws_subnet.private_data_c (expand)</title>
<path fill="none" stroke="black" d="M1745.23,-359.7C1740.94,-351.98 1735.77,-342.71 1730.98,-334.11"/>
<polygon fill="black" stroke="black" points="1734.07,-332.46 1726.14,-325.43 1727.95,-335.87 1734.07,-332.46"/>
</g>
<!-- [root] aws_route_table_association.private_egress_a -->
<g id="node16" class="node">
<title>[root] aws_route_table_association.private_egress_a</title>
<polygon fill="none" stroke="black" points="265.75,-612 0,-612 0,-576 265.75,-576 265.75,-612"/>
<text xml:space="preserve" text-anchor="middle" x="132.88" y="-588.95" font-family="Times,serif" font-size="14.00">aws_route_table_association.private_egress_a</text>
</g>
<!-- [root] aws_route_table_association.private_egress_a (expand) -->
<g id="node17" class="node">
<title>[root] aws_route_table_association.private_egress_a (expand)</title>
<polygon fill="none" stroke="black" points="351.75,-540 86,-540 86,-504 351.75,-504 351.75,-540"/>
<text xml:space="preserve" text-anchor="middle" x="218.88" y="-516.95" font-family="Times,serif" font-size="14.00">aws_route_table_association.private_egress_a</text>
</g>
<!-- [root] aws_route_table_association.private_egress_a&#45;&gt;[root] aws_route_table_association.private_egress_a (expand) -->
<g id="edge23" class="edge">
<title>[root] aws_route_table_association.private_egress_a&#45;&gt;[root] aws_route_table_association.private_egress_a (expand)</title>
<path fill="none" stroke="black" d="M154.13,-575.7C164.57,-567.2 177.33,-556.81 188.76,-547.51"/>
<polygon fill="black" stroke="black" points="190.84,-550.33 196.39,-541.3 186.42,-544.9 190.84,-550.33"/>
</g>
<!-- [root] aws_route_table_association.private_egress_a (expand)&#45;&gt;[root] aws_route_table.private -->
<g id="edge21" class="edge">
<title>[root] aws_route_table_association.private_egress_a (expand)&#45;&gt;[root] aws_route_table.private</title>
<path fill="none" stroke="black" d="M305.3,-503.54C353.36,-493.81 414.55,-481.39 477.6,-468.46"/>
<polygon fill="black" stroke="black" points="477.99,-471.96 487.08,-466.52 476.58,-465.1 477.99,-471.96"/>
</g>
<!-- [root] aws_subnet.private_egress_a (expand) -->
<g id="node31" class="node">
<title>[root] aws_subnet.private_egress_a (expand)</title>
<polygon fill="none" stroke="black" points="347.62,-252 174.12,-252 174.12,-216 347.62,-216 347.62,-252"/>
<text xml:space="preserve" text-anchor="middle" x="260.88" y="-228.95" font-family="Times,serif" font-size="14.00">aws_subnet.private_egress_a</text>
</g>
<!-- [root] aws_route_table_association.private_egress_a (expand)&#45;&gt;[root] aws_subnet.private_egress_a (expand) -->
<g id="edge22" class="edge">
<title>[root] aws_route_table_association.private_egress_a (expand)&#45;&gt;[root] aws_subnet.private_egress_a (expand)</title>
<path fill="none" stroke="black" d="M221.44,-503.54C228.46,-455.76 248.02,-322.51 256.67,-263.61"/>
<polygon fill="black" stroke="black" points="260.13,-264.13 258.12,-253.73 253.21,-263.11 260.13,-264.13"/>
</g>
<!-- [root] aws_route_table_association.private_egress_b -->
<g id="node18" class="node">
<title>[root] aws_route_table_association.private_egress_b</title>
<polygon fill="none" stroke="black" points="790.12,-612 523.62,-612 523.62,-576 790.12,-576 790.12,-612"/>
<text xml:space="preserve" text-anchor="middle" x="656.88" y="-588.95" font-family="Times,serif" font-size="14.00">aws_route_table_association.private_egress_b</text>
</g>
<!-- [root] aws_route_table_association.private_egress_b (expand) -->
<g id="node19" class="node">
<title>[root] aws_route_table_association.private_egress_b (expand)</title>
<polygon fill="none" stroke="black" points="674.12,-540 407.62,-540 407.62,-504 674.12,-504 674.12,-540"/>
<text xml:space="preserve" text-anchor="middle" x="540.88" y="-516.95" font-family="Times,serif" font-size="14.00">aws_route_table_association.private_egress_b</text>
</g>
<!-- [root] aws_route_table_association.private_egress_b&#45;&gt;[root] aws_route_table_association.private_egress_b (expand) -->
<g id="edge26" class="edge">
<title>[root] aws_route_table_association.private_egress_b&#45;&gt;[root] aws_route_table_association.private_egress_b (expand)</title>
<path fill="none" stroke="black" d="M627.9,-575.52C613.12,-566.6 594.95,-555.63 579.04,-546.03"/>
<polygon fill="black" stroke="black" points="581.14,-543.21 570.77,-541.04 577.53,-549.21 581.14,-543.21"/>
</g>
<!-- [root] aws_route_table_association.private_egress_b (expand)&#45;&gt;[root] aws_route_table.private -->
<g id="edge24" class="edge">
<title>[root] aws_route_table_association.private_egress_b (expand)&#45;&gt;[root] aws_route_table.private</title>
<path fill="none" stroke="black" d="M546.07,-503.7C548.3,-496.24 550.98,-487.32 553.49,-478.97"/>
<polygon fill="black" stroke="black" points="556.79,-480.14 556.31,-469.55 550.08,-478.13 556.79,-480.14"/>
</g>
<!-- [root] aws_subnet.private_egress_b (expand) -->
<g id="node32" class="node">
<title>[root] aws_subnet.private_egress_b (expand)</title>
<polygon fill="none" stroke="black" points="764,-252 589.75,-252 589.75,-216 764,-216 764,-252"/>
<text xml:space="preserve" text-anchor="middle" x="676.88" y="-228.95" font-family="Times,serif" font-size="14.00">aws_subnet.private_egress_b</text>
</g>
<!-- [root] aws_route_table_association.private_egress_b (expand)&#45;&gt;[root] aws_subnet.private_egress_b (expand) -->
<g id="edge25" class="edge">
<title>[root] aws_route_table_association.private_egress_b (expand)&#45;&gt;[root] aws_subnet.private_egress_b (expand)</title>
<path fill="none" stroke="black" d="M597.37,-503.58C614.86,-495.48 632.51,-483.98 643.88,-468 687.98,-405.98 685.37,-310.84 680.68,-263.63"/>
<polygon fill="black" stroke="black" points="684.19,-263.5 679.6,-253.95 677.23,-264.27 684.19,-263.5"/>
</g>
<!-- [root] aws_route_table_association.private_egress_c -->
<g id="node20" class="node">
<title>[root] aws_route_table_association.private_egress_c</title>
<polygon fill="none" stroke="black" points="1111.75,-612 846,-612 846,-576 1111.75,-576 1111.75,-612"/>
<text xml:space="preserve" text-anchor="middle" x="978.88" y="-588.95" font-family="Times,serif" font-size="14.00">aws_route_table_association.private_egress_c</text>
</g>
<!-- [root] aws_route_table_association.private_egress_c (expand) -->
<g id="node21" class="node">
<title>[root] aws_route_table_association.private_egress_c (expand)</title>
<polygon fill="none" stroke="black" points="1197.75,-540 932,-540 932,-504 1197.75,-504 1197.75,-540"/>
<text xml:space="preserve" text-anchor="middle" x="1064.88" y="-516.95" font-family="Times,serif" font-size="14.00">aws_route_table_association.private_egress_c</text>
</g>
<!-- [root] aws_route_table_association.private_egress_c&#45;&gt;[root] aws_route_table_association.private_egress_c (expand) -->
<g id="edge29" class="edge">
<title>[root] aws_route_table_association.private_egress_c&#45;&gt;[root] aws_route_table_association.private_egress_c (expand)</title>
<path fill="none" stroke="black" d="M1000.13,-575.7C1010.57,-567.2 1023.33,-556.81 1034.76,-547.51"/>
<polygon fill="black" stroke="black" points="1036.84,-550.33 1042.39,-541.3 1032.42,-544.9 1036.84,-550.33"/>
</g>
<!-- [root] aws_route_table_association.private_egress_c (expand)&#45;&gt;[root] aws_route_table.private -->
<g id="edge27" class="edge">
<title>[root] aws_route_table_association.private_egress_c (expand)&#45;&gt;[root] aws_route_table.private</title>
<path fill="none" stroke="black" d="M938.07,-503.56C863.47,-493.27 767.3,-479.96 681.88,-468 670.43,-466.4 658.36,-464.7 646.48,-463.02"/>
<polygon fill="black" stroke="black" points="647.06,-459.57 636.66,-461.63 646.08,-466.5 647.06,-459.57"/>
</g>
<!-- [root] aws_subnet.private_egress_c (expand) -->
<g id="node33" class="node">
<title>[root] aws_subnet.private_egress_c (expand)</title>
<polygon fill="none" stroke="black" points="1344.62,-468 1171.12,-468 1171.12,-432 1344.62,-432 1344.62,-468"/>
<text xml:space="preserve" text-anchor="middle" x="1257.88" y="-444.95" font-family="Times,serif" font-size="14.00">aws_subnet.private_egress_c</text>
</g>
<!-- [root] aws_route_table_association.private_egress_c (expand)&#45;&gt;[root] aws_subnet.private_egress_c (expand) -->
<g id="edge28" class="edge">
<title>[root] aws_route_table_association.private_egress_c (expand)&#45;&gt;[root] aws_subnet.private_egress_c (expand)</title>
<path fill="none" stroke="black" d="M1113.08,-503.52C1139.2,-494.04 1171.68,-482.26 1199.26,-472.26"/>
<polygon fill="black" stroke="black" points="1200.32,-475.6 1208.53,-468.9 1197.93,-469.02 1200.32,-475.6"/>
</g>
<!-- [root] aws_route_table_association.public_a -->
<g id="node22" class="node">
<title>[root] aws_route_table_association.public_a</title>
<polygon fill="none" stroke="black" points="913.62,-540 692.12,-540 692.12,-504 913.62,-504 913.62,-540"/>
<text xml:space="preserve" text-anchor="middle" x="802.88" y="-516.95" font-family="Times,serif" font-size="14.00">aws_route_table_association.public_a</text>
</g>
<!-- [root] aws_route_table_association.public_a (expand) -->
<g id="node23" class="node">
<title>[root] aws_route_table_association.public_a (expand)</title>
<polygon fill="none" stroke="black" points="912.62,-468 691.12,-468 691.12,-432 912.62,-432 912.62,-468"/>
<text xml:space="preserve" text-anchor="middle" x="801.88" y="-444.95" font-family="Times,serif" font-size="14.00">aws_route_table_association.public_a</text>
</g>
<!-- [root] aws_route_table_association.public_a&#45;&gt;[root] aws_route_table_association.public_a (expand) -->
<g id="edge32" class="edge">
<title>[root] aws_route_table_association.public_a&#45;&gt;[root] aws_route_table_association.public_a (expand)</title>
<path fill="none" stroke="black" d="M802.63,-503.7C802.52,-496.41 802.4,-487.73 802.28,-479.54"/>
<polygon fill="black" stroke="black" points="805.78,-479.57 802.14,-469.62 798.78,-479.67 805.78,-479.57"/>
</g>
<!-- [root] aws_route_table_association.public_a (expand)&#45;&gt;[root] aws_route_table.public -->
<g id="edge30" class="edge">
<title>[root] aws_route_table_association.public_a (expand)&#45;&gt;[root] aws_route_table.public</title>
<path fill="none" stroke="black" d="M793.72,-431.7C790.12,-424.07 785.81,-414.92 781.79,-406.4"/>
<polygon fill="black" stroke="black" points="785.01,-405.03 777.58,-397.47 778.68,-408.01 785.01,-405.03"/>
</g>
<!-- [root] aws_subnet.public_a (expand) -->
<g id="node34" class="node">
<title>[root] aws_subnet.public_a (expand)</title>
<polygon fill="none" stroke="black" points="987.5,-324 858.25,-324 858.25,-288 987.5,-288 987.5,-324"/>
<text xml:space="preserve" text-anchor="middle" x="922.88" y="-300.95" font-family="Times,serif" font-size="14.00">aws_subnet.public_a</text>
</g>
<!-- [root] aws_route_table_association.public_a (expand)&#45;&gt;[root] aws_subnet.public_a (expand) -->
<g id="edge31" class="edge">
<title>[root] aws_route_table_association.public_a (expand)&#45;&gt;[root] aws_subnet.public_a (expand)</title>
<path fill="none" stroke="black" d="M817.25,-431.94C826.5,-421.61 838.46,-408.13 848.88,-396 866.94,-374.97 887.02,-350.76 901.7,-332.9"/>
<polygon fill="black" stroke="black" points="904.25,-335.32 907.89,-325.37 898.84,-330.88 904.25,-335.32"/>
</g>
<!-- [root] aws_route_table_association.public_b -->
<g id="node24" class="node">
<title>[root] aws_route_table_association.public_b</title>
<polygon fill="none" stroke="black" points="1352,-612 1129.75,-612 1129.75,-576 1352,-576 1352,-612"/>
<text xml:space="preserve" text-anchor="middle" x="1240.88" y="-588.95" font-family="Times,serif" font-size="14.00">aws_route_table_association.public_b</text>
</g>
<!-- [root] aws_route_table_association.public_b (expand) -->
<g id="node25" class="node">
<title>[root] aws_route_table_association.public_b (expand)</title>
<polygon fill="none" stroke="black" points="1153,-468 930.75,-468 930.75,-432 1153,-432 1153,-468"/>
<text xml:space="preserve" text-anchor="middle" x="1041.88" y="-444.95" font-family="Times,serif" font-size="14.00">aws_route_table_association.public_b</text>
</g>
<!-- [root] aws_route_table_association.public_b&#45;&gt;[root] aws_route_table_association.public_b (expand) -->
<g id="edge35" class="edge">
<title>[root] aws_route_table_association.public_b&#45;&gt;[root] aws_route_table_association.public_b (expand)</title>
<path fill="none" stroke="black" d="M1238.79,-575.81C1235.49,-555.85 1227.17,-523.22 1206.88,-504 1192.22,-490.12 1173.92,-479.88 1154.89,-472.31"/>
<polygon fill="black" stroke="black" points="1156.27,-469.09 1145.68,-468.91 1153.84,-475.66 1156.27,-469.09"/>
</g>
<!-- [root] aws_route_table_association.public_b (expand)&#45;&gt;[root] aws_route_table.public -->
<g id="edge33" class="edge">
<title>[root] aws_route_table_association.public_b (expand)&#45;&gt;[root] aws_route_table.public</title>
<path fill="none" stroke="black" d="M973.69,-431.52C935.43,-421.71 887.53,-409.43 847.68,-399.21"/>
<polygon fill="black" stroke="black" points="848.69,-395.85 838.13,-396.76 846.95,-402.63 848.69,-395.85"/>
</g>
<!-- [root] aws_subnet.public_b (expand) -->
<g id="node35" class="node">
<title>[root] aws_subnet.public_b (expand)</title>
<polygon fill="none" stroke="black" points="1025.88,-396 895.88,-396 895.88,-360 1025.88,-360 1025.88,-396"/>
<text xml:space="preserve" text-anchor="middle" x="960.88" y="-372.95" font-family="Times,serif" font-size="14.00">aws_subnet.public_b</text>
</g>
<!-- [root] aws_route_table_association.public_b (expand)&#45;&gt;[root] aws_subnet.public_b (expand) -->
<g id="edge34" class="edge">
<title>[root] aws_route_table_association.public_b (expand)&#45;&gt;[root] aws_subnet.public_b (expand)</title>
<path fill="none" stroke="black" d="M1021.85,-431.7C1012.12,-423.28 1000.24,-413.02 989.56,-403.79"/>
<polygon fill="black" stroke="black" points="991.95,-401.23 982.09,-397.34 987.37,-406.52 991.95,-401.23"/>
</g>
<!-- [root] aws_route_table_association.public_c -->
<g id="node26" class="node">
<title>[root] aws_route_table_association.public_c</title>
<polygon fill="none" stroke="black" points="505.62,-612 284.12,-612 284.12,-576 505.62,-576 505.62,-612"/>
<text xml:space="preserve" text-anchor="middle" x="394.88" y="-588.95" font-family="Times,serif" font-size="14.00">aws_route_table_association.public_c</text>
</g>
<!-- [root] aws_route_table_association.public_c (expand) -->
<g id="node27" class="node">
<title>[root] aws_route_table_association.public_c (expand)</title>
<polygon fill="none" stroke="black" points="470.62,-468 249.12,-468 249.12,-432 470.62,-432 470.62,-468"/>
<text xml:space="preserve" text-anchor="middle" x="359.88" y="-444.95" font-family="Times,serif" font-size="14.00">aws_route_table_association.public_c</text>
</g>
<!-- [root] aws_route_table_association.public_c&#45;&gt;[root] aws_route_table_association.public_c (expand) -->
<g id="edge38" class="edge">
<title>[root] aws_route_table_association.public_c&#45;&gt;[root] aws_route_table_association.public_c (expand)</title>
<path fill="none" stroke="black" d="M390.58,-575.59C384.65,-551.5 373.86,-507.75 366.78,-479.03"/>
<polygon fill="black" stroke="black" points="370.25,-478.45 364.45,-469.58 363.45,-480.13 370.25,-478.45"/>
</g>
<!-- [root] aws_route_table_association.public_c (expand)&#45;&gt;[root] aws_route_table.public -->
<g id="edge36" class="edge">
<title>[root] aws_route_table_association.public_c (expand)&#45;&gt;[root] aws_route_table.public</title>
<path fill="none" stroke="black" d="M462.03,-431.52C531.36,-419.65 621.85,-404.16 686.56,-393.09"/>
<polygon fill="black" stroke="black" points="686.77,-396.6 696.03,-391.47 685.59,-389.7 686.77,-396.6"/>
</g>
<!-- [root] aws_route_table_association.public_c (expand)&#45;&gt;[root] aws_subnet.public_c (expand) -->
<g id="edge37" class="edge">
<title>[root] aws_route_table_association.public_c (expand)&#45;&gt;[root] aws_subnet.public_c (expand)</title>
<path fill="none" stroke="black" d="M368.61,-431.85C387.47,-394.83 432.11,-307.18 454.93,-262.39"/>
<polygon fill="black" stroke="black" points="457.99,-264.08 459.41,-253.58 451.75,-260.9 457.99,-264.08"/>
</g>
<!-- [root] aws_subnet.private_data_a (expand)&#45;&gt;[root] aws_vpc.main -->
<g id="edge39" class="edge">
<title>[root] aws_subnet.private_data_a (expand)&#45;&gt;[root] aws_vpc.main</title>
<path fill="none" stroke="black" d="M1121.41,-215.52C1099.35,-206.21 1072,-194.68 1048.56,-184.79"/>
<polygon fill="black" stroke="black" points="1050.06,-181.63 1039.49,-180.97 1047.34,-188.08 1050.06,-181.63"/>
</g>
<!-- [root] aws_subnet.private_data_b (expand)&#45;&gt;[root] aws_vpc.main -->
<g id="edge40" class="edge">
<title>[root] aws_subnet.private_data_b (expand)&#45;&gt;[root] aws_vpc.main</title>
<path fill="none" stroke="black" d="M1477.95,-287.54C1463.85,-266.67 1437.24,-232.51 1404.88,-216 1345.19,-185.55 1153.83,-171.26 1055.87,-165.81"/>
<polygon fill="black" stroke="black" points="1056.09,-162.31 1045.92,-165.27 1055.71,-169.3 1056.09,-162.31"/>
</g>
<!-- [root] aws_subnet.private_data_c (expand)&#45;&gt;[root] aws_vpc.main -->
<g id="edge41" class="edge">
<title>[root] aws_subnet.private_data_c (expand)&#45;&gt;[root] aws_vpc.main</title>
<path fill="none" stroke="black" d="M1671.36,-287.62C1617.58,-267.33 1523.96,-234.22 1440.88,-216 1304.95,-186.19 1141.67,-172.14 1056,-166.4"/>
<polygon fill="black" stroke="black" points="1056.41,-162.91 1046.2,-165.75 1055.95,-169.9 1056.41,-162.91"/>
</g>
<!-- [root] aws_subnet.private_egress_a (expand)&#45;&gt;[root] aws_vpc.main -->
<g id="edge42" class="edge">
<title>[root] aws_subnet.private_egress_a (expand)&#45;&gt;[root] aws_vpc.main</title>
<path fill="none" stroke="black" d="M348.04,-221.45C363.62,-219.53 379.72,-217.63 394.88,-216 499.17,-204.8 807.84,-178.76 937.96,-167.9"/>
<polygon fill="black" stroke="black" points="938.07,-171.4 947.74,-167.08 937.48,-164.42 938.07,-171.4"/>
</g>
<!-- [root] aws_subnet.private_egress_b (expand)&#45;&gt;[root] aws_vpc.main -->
<g id="edge43" class="edge">
<title>[root] aws_subnet.private_egress_b (expand)&#45;&gt;[root] aws_vpc.main</title>
<path fill="none" stroke="black" d="M756.8,-215.52C813.08,-203.21 887.16,-187 938.07,-175.86"/>
<polygon fill="black" stroke="black" points="938.7,-179.31 947.73,-173.75 937.21,-172.47 938.7,-179.31"/>
</g>
<!-- [root] aws_subnet.private_egress_c (expand)&#45;&gt;[root] aws_vpc.main -->
<g id="edge44" class="edge">
<title>[root] aws_subnet.private_egress_c (expand)&#45;&gt;[root] aws_vpc.main</title>
<path fill="none" stroke="black" d="M1170.76,-432.44C1130.03,-423.07 1087.34,-410.36 1072.88,-396 1013.69,-337.25 1048.31,-294.4 1019.88,-216 1016.87,-207.7 1013.21,-198.85 1009.7,-190.8"/>
<polygon fill="black" stroke="black" points="1012.97,-189.54 1005.71,-181.83 1006.58,-192.39 1012.97,-189.54"/>
</g>
<!-- [root] aws_subnet.public_a (expand)&#45;&gt;[root] aws_vpc.main -->
<g id="edge45" class="edge">
<title>[root] aws_subnet.public_a (expand)&#45;&gt;[root] aws_vpc.main</title>
<path fill="none" stroke="black" d="M935.75,-287.87C943.05,-277.74 952.05,-264.49 958.88,-252 969.7,-232.19 979.63,-208.66 986.62,-190.77"/>
<polygon fill="black" stroke="black" points="989.82,-192.19 990.13,-181.6 983.29,-189.69 989.82,-192.19"/>
</g>
<!-- [root] aws_subnet.public_b (expand)&#45;&gt;[root] aws_vpc.main -->
<g id="edge46" class="edge">
<title>[root] aws_subnet.public_b (expand)&#45;&gt;[root] aws_vpc.main</title>
<path fill="none" stroke="black" d="M976.48,-359.77C984.25,-350.03 992.82,-337.18 996.88,-324 1010.63,-279.27 1006.39,-224.18 1001.81,-191.41"/>
<polygon fill="black" stroke="black" points="1005.33,-191.27 1000.37,-181.91 998.41,-192.32 1005.33,-191.27"/>
</g>
<!-- [root] aws_subnet.public_c (expand)&#45;&gt;[root] aws_vpc.main -->
<g id="edge47" class="edge">
<title>[root] aws_subnet.public_c (expand)&#45;&gt;[root] aws_vpc.main</title>
<path fill="none" stroke="black" d="M533.98,-222.85C549.35,-220.53 565.68,-218.12 580.88,-216 707.85,-198.28 856.97,-179.86 937.69,-170.09"/>
<polygon fill="black" stroke="black" points="938.09,-173.57 947.59,-168.89 937.25,-166.62 938.09,-173.57"/>
</g>
<!-- [root] aws_vpc.main (expand) -->
<g id="node38" class="node">
<title>[root] aws_vpc.main (expand)</title>
<polygon fill="none" stroke="black" points="883.25,-108 788.5,-108 788.5,-72 883.25,-72 883.25,-108"/>
<text xml:space="preserve" text-anchor="middle" x="835.88" y="-84.95" font-family="Times,serif" font-size="14.00">aws_vpc.main</text>
</g>
<!-- [root] aws_vpc.main&#45;&gt;[root] aws_vpc.main (expand) -->
<g id="edge49" class="edge">
<title>[root] aws_vpc.main&#45;&gt;[root] aws_vpc.main (expand)</title>
<path fill="none" stroke="black" d="M956.66,-143.52C935.36,-134.25 908.97,-122.78 886.31,-112.93"/>
<polygon fill="black" stroke="black" points="887.81,-109.76 877.24,-108.99 885.02,-116.18 887.81,-109.76"/>
</g>
<!-- [root] aws_vpc.main (expand)&#45;&gt;[root] provider[&quot;registry.terraform.io/hashicorp/aws&quot;] -->
<g id="edge48" class="edge">
<title>[root] aws_vpc.main (expand)&#45;&gt;[root] provider[&quot;registry.terraform.io/hashicorp/aws&quot;]</title>
<path fill="none" stroke="black" d="M824.26,-71.7C818.88,-63.7 812.39,-54.02 806.44,-45.15"/>
<polygon fill="black" stroke="black" points="809.36,-43.23 800.88,-36.88 803.55,-47.13 809.36,-43.23"/>
</g>
<!-- [root] provider[&quot;registry.terraform.io/hashicorp/aws&quot;] (close) -->
<g id="node40" class="node">
<title>[root] provider[&quot;registry.terraform.io/hashicorp/aws&quot;] (close)</title>
<ellipse fill="none" stroke="black" cx="978.88" cy="-666" rx="238.16" ry="18"/>
<text xml:space="preserve" text-anchor="middle" x="978.88" y="-660.95" font-family="Times,serif" font-size="14.00">[root] provider[&quot;registry.terraform.io/hashicorp/aws&quot;] (close)</text>
</g>
<!-- [root] provider[&quot;registry.terraform.io/hashicorp/aws&quot;] (close)&#45;&gt;[root] aws_route_table_association.private_data_a -->
<g id="edge50" class="edge">
<title>[root] provider[&quot;registry.terraform.io/hashicorp/aws&quot;] (close)&#45;&gt;[root] aws_route_table_association.private_data_a</title>
<path fill="none" stroke="black" d="M1186.82,-656.96C1261.62,-649.83 1334.18,-636.57 1360.88,-612 1377.28,-596.9 1381.69,-571.5 1382.34,-551.68"/>
<polygon fill="black" stroke="black" points="1385.84,-551.72 1382.33,-541.73 1378.84,-551.73 1385.84,-551.72"/>
</g>
<!-- [root] provider[&quot;registry.terraform.io/hashicorp/aws&quot;] (close)&#45;&gt;[root] aws_route_table_association.private_data_b -->
<g id="edge51" class="edge">
<title>[root] provider[&quot;registry.terraform.io/hashicorp/aws&quot;] (close)&#45;&gt;[root] aws_route_table_association.private_data_b</title>
<path fill="none" stroke="black" d="M1098.02,-650.03C1185.61,-639.02 1304.89,-624.03 1396.83,-612.47"/>
<polygon fill="black" stroke="black" points="1397.2,-615.95 1406.69,-611.24 1396.33,-609.01 1397.2,-615.95"/>
</g>
<!-- [root] provider[&quot;registry.terraform.io/hashicorp/aws&quot;] (close)&#45;&gt;[root] aws_route_table_association.private_data_c -->
<g id="edge52" class="edge">
<title>[root] provider[&quot;registry.terraform.io/hashicorp/aws&quot;] (close)&#45;&gt;[root] aws_route_table_association.private_data_c</title>
<path fill="none" stroke="black" d="M1194.37,-658.09C1382.69,-650.49 1632.26,-636.05 1672.88,-612 1696.01,-598.3 1711.61,-571.33 1720.75,-550.66"/>
<polygon fill="black" stroke="black" points="1723.89,-552.21 1724.48,-541.64 1717.42,-549.54 1723.89,-552.21"/>
</g>
<!-- [root] provider[&quot;registry.terraform.io/hashicorp/aws&quot;] (close)&#45;&gt;[root] aws_route_table_association.private_egress_a -->
<g id="edge53" class="edge">
<title>[root] provider[&quot;registry.terraform.io/hashicorp/aws&quot;] (close)&#45;&gt;[root] aws_route_table_association.private_egress_a</title>
<path fill="none" stroke="black" d="M800.38,-653.74C660.81,-644.42 461.6,-629.99 277.17,-612.2"/>
<polygon fill="black" stroke="black" points="277.68,-608.73 267.39,-611.25 277.01,-615.7 277.68,-608.73"/>
</g>
<!-- [root] provider[&quot;registry.terraform.io/hashicorp/aws&quot;] (close)&#45;&gt;[root] aws_route_table_association.private_egress_b -->
<g id="edge54" class="edge">
<title>[root] provider[&quot;registry.terraform.io/hashicorp/aws&quot;] (close)&#45;&gt;[root] aws_route_table_association.private_egress_b</title>
<path fill="none" stroke="black" d="M902.97,-648.5C856.74,-638.45 797.38,-625.54 748.54,-614.93"/>
<polygon fill="black" stroke="black" points="749.32,-611.52 738.81,-612.81 747.83,-618.36 749.32,-611.52"/>
</g>
<!-- [root] provider[&quot;registry.terraform.io/hashicorp/aws&quot;] (close)&#45;&gt;[root] aws_route_table_association.private_egress_c -->
<g id="edge55" class="edge">
<title>[root] provider[&quot;registry.terraform.io/hashicorp/aws&quot;] (close)&#45;&gt;[root] aws_route_table_association.private_egress_c</title>
<path fill="none" stroke="black" d="M978.88,-647.7C978.88,-640.41 978.88,-631.73 978.88,-623.54"/>
<polygon fill="black" stroke="black" points="982.38,-623.62 978.88,-613.62 975.38,-623.62 982.38,-623.62"/>
</g>
<!-- [root] provider[&quot;registry.terraform.io/hashicorp/aws&quot;] (close)&#45;&gt;[root] aws_route_table_association.public_a -->
<g id="edge56" class="edge">
<title>[root] provider[&quot;registry.terraform.io/hashicorp/aws&quot;] (close)&#45;&gt;[root] aws_route_table_association.public_a</title>
<path fill="none" stroke="black" d="M899.87,-648.61C877.23,-640.69 854.06,-629.05 836.88,-612 820.54,-595.79 811.92,-570.91 807.45,-551.58"/>
<polygon fill="black" stroke="black" points="810.9,-550.97 805.48,-541.86 804.04,-552.36 810.9,-550.97"/>
</g>
<!-- [root] provider[&quot;registry.terraform.io/hashicorp/aws&quot;] (close)&#45;&gt;[root] aws_route_table_association.public_b -->
<g id="edge57" class="edge">
<title>[root] provider[&quot;registry.terraform.io/hashicorp/aws&quot;] (close)&#45;&gt;[root] aws_route_table_association.public_b</title>
<path fill="none" stroke="black" d="M1041.63,-648.23C1078.5,-638.38 1125.37,-625.86 1164.39,-615.43"/>
<polygon fill="black" stroke="black" points="1165.22,-618.84 1173.97,-612.87 1163.41,-612.07 1165.22,-618.84"/>
</g>
<!-- [root] provider[&quot;registry.terraform.io/hashicorp/aws&quot;] (close)&#45;&gt;[root] aws_route_table_association.public_c -->
<g id="edge58" class="edge">
<title>[root] provider[&quot;registry.terraform.io/hashicorp/aws&quot;] (close)&#45;&gt;[root] aws_route_table_association.public_c</title>
<path fill="none" stroke="black" d="M845.25,-650.7C755.38,-640.86 633.93,-627.11 517.28,-612.29"/>
<polygon fill="black" stroke="black" points="517.87,-608.84 507.51,-611.04 516.98,-615.78 517.87,-608.84"/>
</g>
<!-- [root] root -->
<g id="node41" class="node">
<title>[root] root</title>
<ellipse fill="none" stroke="black" cx="978.88" cy="-738" rx="49.3" ry="18"/>
<text xml:space="preserve" text-anchor="middle" x="978.88" y="-732.95" font-family="Times,serif" font-size="14.00">[root] root</text>
</g>
<!-- [root] root&#45;&gt;[root] provider[&quot;registry.terraform.io/hashicorp/aws&quot;] (close) -->
<g id="edge59" class="edge">
<title>[root] root&#45;&gt;[root] provider[&quot;registry.terraform.io/hashicorp/aws&quot;] (close)</title>
<path fill="none" stroke="black" d="M978.88,-719.7C978.88,-712.41 978.88,-703.73 978.88,-695.54"/>
<polygon fill="black" stroke="black" points="982.38,-695.62 978.88,-685.62 975.38,-695.62 982.38,-695.62"/>
</g>
</g>
</svg>
