<?xml version="1.0" encoding="UTF-8" standalone="no"?>
<!DOCTYPE svg PUBLIC "-//W3C//DTD SVG 1.1//EN"
 "http://www.w3.org/Graphics/SVG/1.1/DTD/svg11.dtd">
<!-- Generated by graphviz version 14.1.0 (20251206.1807)
 -->
<!-- Pages: 1 -->
<svg width="2192pt" height="1484pt"
 viewBox="0.00 0.00 2192.00 1484.00" xmlns="http://www.w3.org/2000/svg" xmlns:xlink="http://www.w3.org/1999/xlink">
<g id="graph0" class="graph" transform="scale(1 1) rotate(0) translate(4 1480)">
<polygon fill="white" stroke="none" points="-4,4 -4,-1480 2188.12,-1480 2188.12,4 -4,4"/>
<!-- [root] aws_eip.main (expand) -->
<g id="node1" class="node">
<title>[root] aws_eip.main (expand)</title>
<polygon fill="none" stroke="black" points="858.75,-324 767,-324 767,-288 858.75,-288 858.75,-324"/>
<text xml:space="preserve" text-anchor="middle" x="812.88" y="-300.95" font-family="Times,serif" font-size="14.00">aws_eip.main</text>
</g>
<!-- [root] provider[&quot;registry.terraform.io/hashicorp/aws&quot;] -->
<g id="node39" class="node">
<title>[root] provider[&quot;registry.terraform.io/hashicorp/aws&quot;]</title>
<polygon fill="none" stroke="black" points="880.88,-36 616.44,-18 880.87,0 1145.31,-18 880.88,-36"/>
<text xml:space="preserve" text-anchor="middle" x="880.88" y="-12.95" font-family="Times,serif" font-size="14.00">provider[&quot;registry.terraform.io/hashicorp/aws&quot;]</text>
</g>
<!-- [root] aws_eip.main (expand)&#45;&gt;[root] provider[&quot;registry.terraform.io/hashicorp/aws&quot;] -->
<g id="edge1" class="edge">
<title>[root] aws_eip.main (expand)&#45;&gt;[root] provider[&quot;registry.terraform.io/hashicorp/aws&quot;]</title>
<path fill="none" stroke="black" d="M812.88,-287.55C812.88,-287.55 812.88,-43.27 812.88,-43.27"/>
<polygon fill="black" stroke="black" points="816.38,-43.27 812.88,-33.27 809.38,-43.27 816.38,-43.27"/>
</g>
<!-- [root] aws_internet_gateway.main (expand) -->
<g id="node2" class="node">
<title>[root] aws_internet_gateway.main (expand)</title>
<polygon fill="none" stroke="black" points="1029.62,-468 862.12,-468 862.12,-432 1029.62,-432 1029.62,-468"/>
<text xml:space="preserve" text-anchor="middle" x="945.88" y="-444.95" font-family="Times,serif" font-size="14.00">aws_internet_gateway.main</text>
</g>
<!-- [root] aws_vpc.main -->
<g id="node37" class="node">
<title>[root] aws_vpc.main</title>
<polygon fill="none" stroke="black" points="1185.25,-324 1090.5,-324 1090.5,-288 1185.25,-288 1185.25,-324"/>
<text xml:space="preserve" text-anchor="middle" x="1137.88" y="-300.95" font-family="Times,serif" font-size="14.00">aws_vpc.main</text>
</g>
<!-- [root] aws_internet_gateway.main (expand)&#45;&gt;[root] aws_vpc.main -->
<g id="edge2" class="edge">
<title>[root] aws_internet_gateway.main (expand)&#45;&gt;[root] aws_vpc.main</title>
<path fill="none" stroke="black" d="M1029.7,-444C1069.22,-444 1107.83,-444 1107.83,-444 1107.83,-444 1107.83,-335.84 1107.83,-335.84"/>
<polygon fill="black" stroke="black" points="1111.33,-335.84 1107.83,-325.84 1104.33,-335.84 1111.33,-335.84"/>
</g>
<!-- [root] aws_nat_gateway.main (expand) -->
<g id="node3" class="node">
<title>[root] aws_nat_gateway.main (expand)</title>
<polygon fill="none" stroke="black" points="652.25,-612 509.5,-612 509.5,-576 652.25,-576 652.25,-612"/>
<text xml:space="preserve" text-anchor="middle" x="580.88" y="-588.95" font-family="Times,serif" font-size="14.00">aws_nat_gateway.main</text>
</g>
<!-- [root] aws_nat_gateway.main (expand)&#45;&gt;[root] aws_eip.main (expand) -->
<g id="edge3" class="edge">
<title>[root] aws_nat_gateway.main (expand)&#45;&gt;[root] aws_eip.main (expand)</title>
<path fill="none" stroke="black" d="M630.6,-575.55C630.6,-511.98 630.6,-306 630.6,-306 630.6,-306 755.37,-306 755.37,-306"/>
<polygon fill="black" stroke="black" points="755.37,-309.5 765.37,-306 755.37,-302.5 755.37,-309.5"/>
</g>
<!-- [root] aws_nat_gateway.main (expand)&#45;&gt;[root] aws_internet_gateway.main (expand) -->
<g id="edge4" class="edge">
<title>[root] aws_nat_gateway.main (expand)&#45;&gt;[root] aws_internet_gateway.main (expand)</title>
<path fill="none" stroke="black" d="M648.5,-575.83C648.5,-554.5 648.5,-522 648.5,-522 648.5,-522 889.38,-522 889.38,-522 889.38,-522 889.38,-479.68 889.38,-479.68"/>
<polygon fill="black" stroke="black" points="892.88,-479.68 889.38,-469.68 885.88,-479.68 892.88,-479.68"/>
</g>
<!-- [root] aws_subnet.public_c (expand) -->
<g id="node36" class="node">
<title>[root] aws_subnet.public_c (expand)</title>
<polygon fill="none" stroke="black" points="514.5,-468 385.25,-468 385.25,-432 514.5,-432 514.5,-468"/>
<text xml:space="preserve" text-anchor="middle" x="449.88" y="-444.95" font-family="Times,serif" font-size="14.00">aws_subnet.public_c</text>
</g>
<!-- [root] aws_nat_gateway.main (expand)&#45;&gt;[root] aws_subnet.public_c (expand) -->
<g id="edge5" class="edge">
<title>[root] aws_nat_gateway.main (expand)&#45;&gt;[root] aws_subnet.public_c (expand)</title>
<path fill="none" stroke="black" d="M509.19,-594C499.09,-594 492.06,-594 492.06,-594 492.06,-594 492.06,-479.75 492.06,-479.75"/>
<polygon fill="black" stroke="black" points="495.56,-479.75 492.06,-469.75 488.56,-479.75 495.56,-479.75"/>
</g>
<!-- [root] aws_route_table.local -->
<g id="node4" class="node">
<title>[root] aws_route_table.local</title>
<polygon fill="none" stroke="black" points="1653.12,-612 1518.62,-612 1518.62,-576 1653.12,-576 1653.12,-612"/>
<text xml:space="preserve" text-anchor="middle" x="1585.88" y="-588.95" font-family="Times,serif" font-size="14.00">aws_route_table.local</text>
</g>
<!-- [root] aws_route_table.local (expand) -->
<g id="node5" class="node">
<title>[root] aws_route_table.local (expand)</title>
<polygon fill="none" stroke="black" points="1673.12,-468 1538.62,-468 1538.62,-432 1673.12,-432 1673.12,-468"/>
<text xml:space="preserve" text-anchor="middle" x="1605.88" y="-444.95" font-family="Times,serif" font-size="14.00">aws_route_table.local</text>
</g>
<!-- [root] aws_route_table.local&#45;&gt;[root] aws_route_table.local (expand) -->
<g id="edge7" class="edge">
<title>[root] aws_route_table.local&#45;&gt;[root] aws_route_table.local (expand)</title>
<path fill="none" stroke="black" d="M1595.88,-575.76C1595.88,-575.76 1595.88,-479.6 1595.88,-479.6"/>
<polygon fill="black" stroke="black" points="1599.38,-479.6 1595.88,-469.6 1592.38,-479.6 1599.38,-479.6"/>
</g>
<!-- [root] aws_route_table.local (expand)&#45;&gt;[root] aws_vpc.main -->
<g id="edge6" class="edge">
<title>[root] aws_route_table.local (expand)&#45;&gt;[root] aws_vpc.main</title>
<path fill="none" stroke="black" d="M1605.88,-431.7C1605.88,-393.75 1605.88,-310 1605.88,-310 1605.88,-310 1196.84,-310 1196.84,-310"/>
<polygon fill="black" stroke="black" points="1196.84,-306.5 1186.84,-310 1196.84,-313.5 1196.84,-306.5"/>
</g>
<!-- [root] aws_route_table.private -->
<g id="node6" class="node">
<title>[root] aws_route_table.private</title>
<polygon fill="none" stroke="black" points="663.75,-900 518,-900 518,-864 663.75,-864 663.75,-900"/>
<text xml:space="preserve" text-anchor="middle" x="590.88" y="-876.95" font-family="Times,serif" font-size="14.00">aws_route_table.private</text>
</g>
<!-- [root] aws_route_table.private (expand) -->
<g id="node7" class="node">
<title>[root] aws_route_table.private (expand)</title>
<polygon fill="none" stroke="black" points="660.75,-756 515,-756 515,-720 660.75,-720 660.75,-756"/>
<text xml:space="preserve" text-anchor="middle" x="587.88" y="-732.95" font-family="Times,serif" font-size="14.00">aws_route_table.private</text>
</g>
<!-- [root] aws_route_table.private&#45;&gt;[root] aws_route_table.private (expand) -->
<g id="edge9" class="edge">
<title>[root] aws_route_table.private&#45;&gt;[root] aws_route_table.private (expand)</title>
<path fill="none" stroke="black" d="M589.38,-863.76C589.38,-863.76 589.38,-767.6 589.38,-767.6"/>
<polygon fill="black" stroke="black" points="592.88,-767.6 589.38,-757.6 585.88,-767.6 592.88,-767.6"/>
</g>
<!-- [root] aws_route_table.private (expand)&#45;&gt;[root] aws_nat_gateway.main (expand) -->
<g id="edge8" class="edge">
<title>[root] aws_route_table.private (expand)&#45;&gt;[root] aws_nat_gateway.main (expand)</title>
<path fill="none" stroke="black" d="M583.62,-719.76C583.62,-719.76 583.62,-623.6 583.62,-623.6"/>
<polygon fill="black" stroke="black" points="587.13,-623.6 583.63,-613.6 580.13,-623.6 587.13,-623.6"/>
</g>
<!-- [root] aws_route_table.public -->
<g id="node8" class="node">
<title>[root] aws_route_table.public</title>
<polygon fill="none" stroke="black" points="943.88,-756 801.88,-756 801.88,-720 943.88,-720 943.88,-756"/>
<text xml:space="preserve" text-anchor="middle" x="872.88" y="-732.95" font-family="Times,serif" font-size="14.00">aws_route_table.public</text>
</g>
<!-- [root] aws_route_table.public (expand) -->
<g id="node9" class="node">
<title>[root] aws_route_table.public (expand)</title>
<polygon fill="none" stroke="black" points="943.88,-612 801.88,-612 801.88,-576 943.88,-576 943.88,-612"/>
<text xml:space="preserve" text-anchor="middle" x="872.88" y="-588.95" font-family="Times,serif" font-size="14.00">aws_route_table.public</text>
</g>
<!-- [root] aws_route_table.public&#45;&gt;[root] aws_route_table.public (expand) -->
<g id="edge11" class="edge">
<title>[root] aws_route_table.public&#45;&gt;[root] aws_route_table.public (expand)</title>
<path fill="none" stroke="black" d="M872.88,-719.76C872.88,-719.76 872.88,-623.6 872.88,-623.6"/>
<polygon fill="black" stroke="black" points="876.38,-623.6 872.88,-613.6 869.38,-623.6 876.38,-623.6"/>
</g>
<!-- [root] aws_route_table.public (expand)&#45;&gt;[root] aws_internet_gateway.main (expand) -->
<g id="edge10" class="edge">
<title>[root] aws_route_table.public (expand)&#45;&gt;[root] aws_internet_gateway.main (expand)</title>
<path fill="none" stroke="black" d="M916.62,-575.76C916.62,-575.76 916.62,-479.6 916.62,-479.6"/>
<polygon fill="black" stroke="black" points="920.13,-479.6 916.63,-469.6 913.13,-479.6 920.13,-479.6"/>
</g>
<!-- [root] aws_route_table_association.private_data_a -->
<g id="node10" class="node">
<title>[root] aws_route_table_association.private_data_a</title>
<polygon fill="none" stroke="black" points="1693.12,-1044 1438.62,-1044 1438.62,-1008 1693.12,-1008 1693.12,-1044"/>
<text xml:space="preserve" text-anchor="middle" x="1565.88" y="-1020.95" font-family="Times,serif" font-size="14.00">aws_route_table_association.private_data_a</text>
</g>
<!-- [root] aws_route_table_association.private_data_a (expand) -->
<g id="node11" class="node">
<title>[root] aws_route_table_association.private_data_a (expand)</title>
<polygon fill="none" stroke="black" points="1588.12,-756 1333.62,-756 1333.62,-720 1588.12,-720 1588.12,-756"/>
<text xml:space="preserve" text-anchor="middle" x="1460.88" y="-732.95" font-family="Times,serif" font-size="14.00">aws_route_table_association.private_data_a</text>
</g>
<!-- [root] aws_route_table_association.private_data_a&#45;&gt;[root] aws_route_table_association.private_data_a (expand) -->
<g id="edge14" class="edge">
<title>[root] aws_route_table_association.private_data_a&#45;&gt;[root] aws_route_table_association.private_data_a (expand)</title>
<path fill="none" stroke="black" d="M1542.88,-1007.55C1542.88,-1007.55 1542.88,-767.81 1542.88,-767.81"/>
<polygon fill="black" stroke="black" points="1546.38,-767.81 1542.88,-757.81 1539.38,-767.81 1546.38,-767.81"/>
</g>
<!-- [root] aws_route_table_association.private_data_a (expand)&#45;&gt;[root] aws_route_table.local -->
<g id="edge12" class="edge">
<title>[root] aws_route_table_association.private_data_a (expand)&#45;&gt;[root] aws_route_table.local</title>
<path fill="none" stroke="black" d="M1553.38,-719.76C1553.38,-719.76 1553.38,-623.6 1553.38,-623.6"/>
<polygon fill="black" stroke="black" points="1556.88,-623.6 1553.38,-613.6 1549.88,-623.6 1556.88,-623.6"/>
</g>
<!-- [root] aws_subnet.private_data_a (expand) -->
<g id="node28" class="node">
<title>[root] aws_subnet.private_data_a (expand)</title>
<polygon fill="none" stroke="black" points="1496,-468 1333.75,-468 1333.75,-432 1496,-432 1496,-468"/>
<text xml:space="preserve" text-anchor="middle" x="1414.88" y="-444.95" font-family="Times,serif" font-size="14.00">aws_subnet.private_data_a</text>
</g>
<!-- [root] aws_route_table_association.private_data_a (expand)&#45;&gt;[root] aws_subnet.private_data_a (expand) -->
<g id="edge13" class="edge">
<title>[root] aws_route_table_association.private_data_a (expand)&#45;&gt;[root] aws_subnet.private_data_a (expand)</title>
<path fill="none" stroke="black" d="M1414.88,-719.55C1414.88,-719.55 1414.88,-479.81 1414.88,-479.81"/>
<polygon fill="black" stroke="black" points="1418.38,-479.81 1414.88,-469.81 1411.38,-479.81 1418.38,-479.81"/>
</g>
<!-- [root] aws_route_table_association.private_data_b -->
<g id="node12" class="node">
<title>[root] aws_route_table_association.private_data_b</title>
<polygon fill="none" stroke="black" points="1886.5,-1188 1631.25,-1188 1631.25,-1152 1886.5,-1152 1886.5,-1188"/>
<text xml:space="preserve" text-anchor="middle" x="1758.88" y="-1164.95" font-family="Times,serif" font-size="14.00">aws_route_table_association.private_data_b</text>
</g>
<!-- [root] aws_route_table_association.private_data_b (expand) -->
<g id="node13" class="node">
<title>[root] aws_route_table_association.private_data_b (expand)</title>
<polygon fill="none" stroke="black" points="1886.5,-756 1631.25,-756 1631.25,-720 1886.5,-720 1886.5,-756"/>
<text xml:space="preserve" text-anchor="middle" x="1758.88" y="-732.95" font-family="Times,serif" font-size="14.00">aws_route_table_association.private_data_b</text>
</g>
<!-- [root] aws_route_table_association.private_data_b&#45;&gt;[root] aws_route_table_association.private_data_b (expand) -->
<g id="edge17" class="edge">
<title>[root] aws_route_table_association.private_data_b&#45;&gt;[root] aws_route_table_association.private_data_b (expand)</title>
<path fill="none" stroke="black" d="M1789.81,-1151.71C1789.81,-1151.71 1789.81,-767.56 1789.81,-767.56"/>
<polygon fill="black" stroke="black" points="1793.31,-767.56 1789.81,-757.56 1786.31,-767.56 1793.31,-767.56"/>
</g>
<!-- [root] aws_route_table_association.private_data_b (expand)&#45;&gt;[root] aws_route_table.local -->
<g id="edge15" class="edge">
<title>[root] aws_route_table_association.private_data_b (expand)&#45;&gt;[root] aws_route_table.local</title>
<path fill="none" stroke="black" d="M1638.54,-719.76C1638.54,-719.76 1638.54,-623.6 1638.54,-623.6"/>
<polygon fill="black" stroke="black" points="1642.04,-623.6 1638.54,-613.6 1635.04,-623.6 1642.04,-623.6"/>
</g>
<!-- [root] aws_subnet.private_data_b (expand) -->
<g id="node29" class="node">
<title>[root] aws_subnet.private_data_b (expand)</title>
<polygon fill="none" stroke="black" points="1859.38,-612 1696.38,-612 1696.38,-576 1859.38,-576 1859.38,-612"/>
<text xml:space="preserve" text-anchor="middle" x="1777.88" y="-588.95" font-family="Times,serif" font-size="14.00">aws_subnet.private_data_b</text>
</g>
<!-- [root] aws_route_table_association.private_data_b (expand)&#45;&gt;[root] aws_subnet.private_data_b (expand) -->
<g id="edge16" class="edge">
<title>[root] aws_route_table_association.private_data_b (expand)&#45;&gt;[root] aws_subnet.private_data_b (expand)</title>
<path fill="none" stroke="black" d="M1777.88,-719.76C1777.88,-719.76 1777.88,-623.6 1777.88,-623.6"/>
<polygon fill="black" stroke="black" points="1781.38,-623.6 1777.88,-613.6 1774.38,-623.6 1781.38,-623.6"/>
</g>
<!-- [root] aws_route_table_association.private_data_c -->
<g id="node14" class="node">
<title>[root] aws_route_table_association.private_data_c</title>
<polygon fill="none" stroke="black" points="2144.12,-1044 1889.62,-1044 1889.62,-1008 2144.12,-1008 2144.12,-1044"/>
<text xml:space="preserve" text-anchor="middle" x="2016.88" y="-1020.95" font-family="Times,serif" font-size="14.00">aws_route_table_association.private_data_c</text>
</g>
<!-- [root] aws_route_table_association.private_data_c (expand) -->
<g id="node15" class="node">
<title>[root] aws_route_table_association.private_data_c (expand)</title>
<polygon fill="none" stroke="black" points="2184.12,-756 1929.62,-756 1929.62,-720 2184.12,-720 2184.12,-756"/>
<text xml:space="preserve" text-anchor="middle" x="2056.88" y="-732.95" font-family="Times,serif" font-size="14.00">aws_route_table_association.private_data_c</text>
</g>
<!-- [root] aws_route_table_association.private_data_c&#45;&gt;[root] aws_route_table_association.private_data_c (expand) -->
<g id="edge20" class="edge">
<title>[root] aws_route_table_association.private_data_c&#45;&gt;[root] aws_route_table_association.private_data_c (expand)</title>
<path fill="none" stroke="black" d="M2036.88,-1007.55C2036.88,-1007.55 2036.88,-767.81 2036.88,-767.81"/>
<polygon fill="black" stroke="black" points="2040.38,-767.81 2036.88,-757.81 2033.38,-767.81 2040.38,-767.81"/>
</g>
<!-- [root] aws_route_table_association.private_data_c (expand)&#45;&gt;[root] aws_route_table.local -->
<g id="edge18" class="edge">
<title>[root] aws_route_table_association.private_data_c (expand)&#45;&gt;[root] aws_route_table.local</title>
<path fill="none" stroke="black" d="M1939.19,-719.83C1939.19,-698.5 1939.19,-666 1939.19,-666 1939.19,-666 1645.83,-666 1645.83,-666 1645.83,-666 1645.83,-623.68 1645.83,-623.68"/>
<polygon fill="black" stroke="black" points="1649.33,-623.68 1645.83,-613.68 1642.33,-623.68 1649.33,-623.68"/>
</g>
<!-- [root] aws_subnet.private_data_c (expand) -->
<g id="node30" class="node">
<title>[root] aws_subnet.private_data_c (expand)</title>
<polygon fill="none" stroke="black" points="2111,-612 1948.75,-612 1948.75,-576 2111,-576 2111,-612"/>
<text xml:space="preserve" text-anchor="middle" x="2029.88" y="-588.95" font-family="Times,serif" font-size="14.00">aws_subnet.private_data_c</text>
</g>
<!-- [root] aws_route_table_association.private_data_c (expand)&#45;&gt;[root] aws_subnet.private_data_c (expand) -->
<g id="edge19" class="edge">
<title>[root] aws_route_table_association.private_data_c (expand)&#45;&gt;[root] aws_subnet.private_data_c (expand)</title>
<path fill="none" stroke="black" d="M2029.88,-719.76C2029.88,-719.76 2029.88,-623.6 2029.88,-623.6"/>
<polygon fill="black" stroke="black" points="2033.38,-623.6 2029.88,-613.6 2026.38,-623.6 2033.38,-623.6"/>
</g>
<!-- [root] aws_route_table_association.private_egress_a -->
<g id="node16" class="node">
<title>[root] aws_route_table_association.private_egress_a</title>
<polygon fill="none" stroke="black" points="265.75,-1188 0,-1188 0,-1152 265.75,-1152 265.75,-1188"/>
<text xml:space="preserve" text-anchor="middle" x="132.88" y="-1164.95" font-family="Times,serif" font-size="14.00">aws_route_table_association.private_egress_a</text>
</g>
<!-- [root] aws_route_table_association.private_egress_a (expand) -->
<g id="node17" class="node">
<title>[root] aws_route_table_association.private_egress_a (expand)</title>
<polygon fill="none" stroke="black" points="320.75,-1044 55,-1044 55,-1008 320.75,-1008 320.75,-1044"/>
<text xml:space="preserve" text-anchor="middle" x="187.88" y="-1020.95" font-family="Times,serif" font-size="14.00">aws_route_table_association.private_egress_a</text>
</g>
<!-- [root] aws_route_table_association.private_egress_a&#45;&gt;[root] aws_route_table_association.private_egress_a (expand) -->
<g id="edge23" class="edge">
<title>[root] aws_route_table_association.private_egress_a&#45;&gt;[root] aws_route_table_association.private_egress_a (expand)</title>
<path fill="none" stroke="black" d="M160.38,-1151.76C160.38,-1151.76 160.38,-1055.6 160.38,-1055.6"/>
<polygon fill="black" stroke="black" points="163.88,-1055.6 160.38,-1045.6 156.88,-1055.6 163.88,-1055.6"/>
</g>
<!-- [root] aws_route_table_association.private_egress_a (expand)&#45;&gt;[root] aws_route_table.private -->
<g id="edge21" class="edge">
<title>[root] aws_route_table_association.private_egress_a (expand)&#45;&gt;[root] aws_route_table.private</title>
<path fill="none" stroke="black" d="M286.94,-1007.79C286.94,-981.49 286.94,-936 286.94,-936 286.94,-936 554.44,-936 554.44,-936 554.44,-936 554.44,-911.8 554.44,-911.8"/>
<polygon fill="black" stroke="black" points="557.94,-911.8 554.44,-901.8 550.94,-911.8 557.94,-911.8"/>
</g>
<!-- [root] aws_subnet.private_egress_a (expand) -->
<g id="node31" class="node">
<title>[root] aws_subnet.private_egress_a (expand)</title>
<polygon fill="none" stroke="black" points="310.62,-468 137.12,-468 137.12,-432 310.62,-432 310.62,-468"/>
<text xml:space="preserve" text-anchor="middle" x="223.88" y="-444.95" font-family="Times,serif" font-size="14.00">aws_subnet.private_egress_a</text>
</g>
<!-- [root] aws_route_table_association.private_egress_a (expand)&#45;&gt;[root] aws_subnet.private_egress_a (expand) -->
<g id="edge22" class="edge">
<title>[root] aws_route_table_association.private_egress_a (expand)&#45;&gt;[root] aws_subnet.private_egress_a (expand)</title>
<path fill="none" stroke="black" d="M195.12,-1007.81C195.12,-1007.81 195.12,-480 195.12,-480"/>
<polygon fill="black" stroke="black" points="198.63,-480 195.13,-470 191.63,-480 198.63,-480"/>
</g>
<!-- [root] aws_route_table_association.private_egress_b -->
<g id="node18" class="node">
<title>[root] aws_route_table_association.private_egress_b</title>
<polygon fill="none" stroke="black" points="840.12,-1188 573.62,-1188 573.62,-1152 840.12,-1152 840.12,-1188"/>
<text xml:space="preserve" text-anchor="middle" x="706.88" y="-1164.95" font-family="Times,serif" font-size="14.00">aws_route_table_association.private_egress_b</text>
</g>
<!-- [root] aws_route_table_association.private_egress_b (expand) -->
<g id="node19" class="node">
<title>[root] aws_route_table_association.private_egress_b (expand)</title>
<polygon fill="none" stroke="black" points="735.12,-1044 468.62,-1044 468.62,-1008 735.12,-1008 735.12,-1044"/>
<text xml:space="preserve" text-anchor="middle" x="601.88" y="-1020.95" font-family="Times,serif" font-size="14.00">aws_route_table_association.private_egress_b</text>
</g>
<!-- [root] aws_route_table_association.private_egress_b&#45;&gt;[root] aws_route_table_association.private_egress_b (expand) -->
<g id="edge26" class="edge">
<title>[root] aws_route_table_association.private_egress_b&#45;&gt;[root] aws_route_table_association.private_egress_b (expand)</title>
<path fill="none" stroke="black" d="M654.38,-1151.76C654.38,-1151.76 654.38,-1055.6 654.38,-1055.6"/>
<polygon fill="black" stroke="black" points="657.88,-1055.6 654.38,-1045.6 650.88,-1055.6 657.88,-1055.6"/>
</g>
<!-- [root] aws_route_table_association.private_egress_b (expand)&#45;&gt;[root] aws_route_table.private -->
<g id="edge24" class="edge">
<title>[root] aws_route_table_association.private_egress_b (expand)&#45;&gt;[root] aws_route_table.private</title>
<path fill="none" stroke="black" d="M590.88,-1007.76C590.88,-1007.76 590.88,-911.6 590.88,-911.6"/>
<polygon fill="black" stroke="black" points="594.38,-911.6 590.88,-901.6 587.38,-911.6 594.38,-911.6"/>
</g>
<!-- [root] aws_subnet.private_egress_b (expand) -->
<g id="node32" class="node">
<title>[root] aws_subnet.private_egress_b (expand)</title>
<polygon fill="none" stroke="black" points="819,-468 644.75,-468 644.75,-432 819,-432 819,-468"/>
<text xml:space="preserve" text-anchor="middle" x="731.88" y="-444.95" font-family="Times,serif" font-size="14.00">aws_subnet.private_egress_b</text>
</g>
<!-- [root] aws_route_table_association.private_egress_b (expand)&#45;&gt;[root] aws_subnet.private_egress_b (expand) -->
<g id="edge25" class="edge">
<title>[root] aws_route_table_association.private_egress_b (expand)&#45;&gt;[root] aws_subnet.private_egress_b (expand)</title>
<path fill="none" stroke="black" d="M699.44,-1007.81C699.44,-1007.81 699.44,-480 699.44,-480"/>
<polygon fill="black" stroke="black" points="702.94,-480 699.44,-470 695.94,-480 702.94,-480"/>
</g>
<!-- [root] aws_route_table_association.private_egress_c -->
<g id="node20" class="node">
<title>[root] aws_route_table_association.private_egress_c</title>
<polygon fill="none" stroke="black" points="1235.75,-1188 970,-1188 970,-1152 1235.75,-1152 1235.75,-1188"/>
<text xml:space="preserve" text-anchor="middle" x="1102.88" y="-1164.95" font-family="Times,serif" font-size="14.00">aws_route_table_association.private_egress_c</text>
</g>
<!-- [root] aws_route_table_association.private_egress_c (expand) -->
<g id="node21" class="node">
<title>[root] aws_route_table_association.private_egress_c (expand)</title>
<polygon fill="none" stroke="black" points="1308.75,-1044 1043,-1044 1043,-1008 1308.75,-1008 1308.75,-1044"/>
<text xml:space="preserve" text-anchor="middle" x="1175.88" y="-1020.95" font-family="Times,serif" font-size="14.00">aws_route_table_association.private_egress_c</text>
</g>
<!-- [root] aws_route_table_association.private_egress_c&#45;&gt;[root] aws_route_table_association.private_egress_c (expand) -->
<g id="edge29" class="edge">
<title>[root] aws_route_table_association.private_egress_c&#45;&gt;[root] aws_route_table_association.private_egress_c (expand)</title>
<path fill="none" stroke="black" d="M1139.38,-1151.76C1139.38,-1151.76 1139.38,-1055.6 1139.38,-1055.6"/>
<polygon fill="black" stroke="black" points="1142.88,-1055.6 1139.38,-1045.6 1135.88,-1055.6 1142.88,-1055.6"/>
</g>
<!-- [root] aws_route_table_association.private_egress_c (expand)&#45;&gt;[root] aws_route_table.private -->
<g id="edge27" class="edge">
<title>[root] aws_route_table_association.private_egress_c (expand)&#45;&gt;[root] aws_route_table.private</title>
<path fill="none" stroke="black" d="M1050.88,-1007.72C1050.88,-992.05 1050.88,-972 1050.88,-972 1050.88,-972 627.31,-972 627.31,-972 627.31,-972 627.31,-911.73 627.31,-911.73"/>
<polygon fill="black" stroke="black" points="630.81,-911.73 627.31,-901.73 623.81,-911.73 630.81,-911.73"/>
</g>
<!-- [root] aws_subnet.private_egress_c (expand) -->
<g id="node33" class="node">
<title>[root] aws_subnet.private_egress_c (expand)</title>
<polygon fill="none" stroke="black" points="1497.62,-900 1324.12,-900 1324.12,-864 1497.62,-864 1497.62,-900"/>
<text xml:space="preserve" text-anchor="middle" x="1410.88" y="-876.95" font-family="Times,serif" font-size="14.00">aws_subnet.private_egress_c</text>
</g>
<!-- [root] aws_route_table_association.private_egress_c (expand)&#45;&gt;[root] aws_subnet.private_egress_c (expand) -->
<g id="edge28" class="edge">
<title>[root] aws_route_table_association.private_egress_c (expand)&#45;&gt;[root] aws_subnet.private_egress_c (expand)</title>
<path fill="none" stroke="black" d="M1294.88,-1007.61C1294.88,-967.55 1294.88,-876 1294.88,-876 1294.88,-876 1312.33,-876 1312.33,-876"/>
<polygon fill="black" stroke="black" points="1312.33,-879.5 1322.33,-876 1312.33,-872.5 1312.33,-879.5"/>
</g>
<!-- [root] aws_route_table_association.public_a -->
<g id="node22" class="node">
<title>[root] aws_route_table_association.public_a</title>
<polygon fill="none" stroke="black" points="999.62,-1044 778.12,-1044 778.12,-1008 999.62,-1008 999.62,-1044"/>
<text xml:space="preserve" text-anchor="middle" x="888.88" y="-1020.95" font-family="Times,serif" font-size="14.00">aws_route_table_association.public_a</text>
</g>
<!-- [root] aws_route_table_association.public_a (expand) -->
<g id="node23" class="node">
<title>[root] aws_route_table_association.public_a (expand)</title>
<polygon fill="none" stroke="black" points="1015.62,-900 794.12,-900 794.12,-864 1015.62,-864 1015.62,-900"/>
<text xml:space="preserve" text-anchor="middle" x="904.88" y="-876.95" font-family="Times,serif" font-size="14.00">aws_route_table_association.public_a</text>
</g>
<!-- [root] aws_route_table_association.public_a&#45;&gt;[root] aws_route_table_association.public_a (expand) -->
<g id="edge32" class="edge">
<title>[root] aws_route_table_association.public_a&#45;&gt;[root] aws_route_table_association.public_a (expand)</title>
<path fill="none" stroke="black" d="M896.88,-1007.76C896.88,-1007.76 896.88,-911.6 896.88,-911.6"/>
<polygon fill="black" stroke="black" points="900.38,-911.6 896.88,-901.6 893.38,-911.6 900.38,-911.6"/>
</g>
<!-- [root] aws_route_table_association.public_a (expand)&#45;&gt;[root] aws_route_table.public -->
<g id="edge30" class="edge">
<title>[root] aws_route_table_association.public_a (expand)&#45;&gt;[root] aws_route_table.public</title>
<path fill="none" stroke="black" d="M896.54,-863.76C896.54,-863.76 896.54,-767.6 896.54,-767.6"/>
<polygon fill="black" stroke="black" points="900.04,-767.6 896.54,-757.6 893.04,-767.6 900.04,-767.6"/>
</g>
<!-- [root] aws_subnet.public_a (expand) -->
<g id="node34" class="node">
<title>[root] aws_subnet.public_a (expand)</title>
<polygon fill="none" stroke="black" points="1116.5,-612 987.25,-612 987.25,-576 1116.5,-576 1116.5,-612"/>
<text xml:space="preserve" text-anchor="middle" x="1051.88" y="-588.95" font-family="Times,serif" font-size="14.00">aws_subnet.public_a</text>
</g>
<!-- [root] aws_route_table_association.public_a (expand)&#45;&gt;[root] aws_subnet.public_a (expand) -->
<g id="edge31" class="edge">
<title>[root] aws_route_table_association.public_a (expand)&#45;&gt;[root] aws_subnet.public_a (expand)</title>
<path fill="none" stroke="black" d="M1001.44,-863.55C1001.44,-863.55 1001.44,-623.81 1001.44,-623.81"/>
<polygon fill="black" stroke="black" points="1004.94,-623.81 1001.44,-613.81 997.94,-623.81 1004.94,-623.81"/>
</g>
<!-- [root] aws_route_table_association.public_b -->
<g id="node24" class="node">
<title>[root] aws_route_table_association.public_b</title>
<polygon fill="none" stroke="black" points="1501,-1188 1278.75,-1188 1278.75,-1152 1501,-1152 1501,-1188"/>
<text xml:space="preserve" text-anchor="middle" x="1389.88" y="-1164.95" font-family="Times,serif" font-size="14.00">aws_route_table_association.public_b</text>
</g>
<!-- [root] aws_route_table_association.public_b (expand) -->
<g id="node25" class="node">
<title>[root] aws_route_table_association.public_b (expand)</title>
<polygon fill="none" stroke="black" points="1281,-900 1058.75,-900 1058.75,-864 1281,-864 1281,-900"/>
<text xml:space="preserve" text-anchor="middle" x="1169.88" y="-876.95" font-family="Times,serif" font-size="14.00">aws_route_table_association.public_b</text>
</g>
<!-- [root] aws_route_table_association.public_b&#45;&gt;[root] aws_route_table_association.public_b (expand) -->
<g id="edge35" class="edge">
<title>[root] aws_route_table_association.public_b&#45;&gt;[root] aws_route_table_association.public_b (expand)</title>
<path fill="none" stroke="black" d="M1316.44,-1151.93C1316.44,-1089.69 1316.44,-888 1316.44,-888 1316.44,-888 1292.85,-888 1292.85,-888"/>
<polygon fill="black" stroke="black" points="1292.85,-884.5 1282.85,-888 1292.85,-891.5 1292.85,-884.5"/>
</g>
<!-- [root] aws_route_table_association.public_b (expand)&#45;&gt;[root] aws_route_table.public -->
<g id="edge33" class="edge">
<title>[root] aws_route_table_association.public_b (expand)&#45;&gt;[root] aws_route_table.public</title>
<path fill="none" stroke="black" d="M1066.31,-863.76C1066.31,-825.01 1066.31,-738 1066.31,-738 1066.31,-738 955.87,-738 955.87,-738"/>
<polygon fill="black" stroke="black" points="955.87,-734.5 945.87,-738 955.87,-741.5 955.87,-734.5"/>
</g>
<!-- [root] aws_subnet.public_b (expand) -->
<g id="node35" class="node">
<title>[root] aws_subnet.public_b (expand)</title>
<polygon fill="none" stroke="black" points="1203.88,-756 1073.88,-756 1073.88,-720 1203.88,-720 1203.88,-756"/>
<text xml:space="preserve" text-anchor="middle" x="1138.88" y="-732.95" font-family="Times,serif" font-size="14.00">aws_subnet.public_b</text>
</g>
<!-- [root] aws_route_table_association.public_b (expand)&#45;&gt;[root] aws_subnet.public_b (expand) -->
<g id="edge34" class="edge">
<title>[root] aws_route_table_association.public_b (expand)&#45;&gt;[root] aws_subnet.public_b (expand)</title>
<path fill="none" stroke="black" d="M1138.88,-863.76C1138.88,-863.76 1138.88,-767.6 1138.88,-767.6"/>
<polygon fill="black" stroke="black" points="1142.38,-767.6 1138.88,-757.6 1135.38,-767.6 1142.38,-767.6"/>
</g>
<!-- [root] aws_route_table_association.public_c -->
<g id="node26" class="node">
<title>[root] aws_route_table_association.public_c</title>
<polygon fill="none" stroke="black" points="530.62,-1188 309.12,-1188 309.12,-1152 530.62,-1152 530.62,-1188"/>
<text xml:space="preserve" text-anchor="middle" x="419.88" y="-1164.95" font-family="Times,serif" font-size="14.00">aws_route_table_association.public_c</text>
</g>
<!-- [root] aws_route_table_association.public_c (expand) -->
<g id="node27" class="node">
<title>[root] aws_route_table_association.public_c (expand)</title>
<polygon fill="none" stroke="black" points="474.62,-900 253.12,-900 253.12,-864 474.62,-864 474.62,-900"/>
<text xml:space="preserve" text-anchor="middle" x="363.88" y="-876.95" font-family="Times,serif" font-size="14.00">aws_route_table_association.public_c</text>
</g>
<!-- [root] aws_route_table_association.public_c&#45;&gt;[root] aws_route_table_association.public_c (expand) -->
<g id="edge38" class="edge">
<title>[root] aws_route_table_association.public_c&#45;&gt;[root] aws_route_table_association.public_c (expand)</title>
<path fill="none" stroke="black" d="M394.69,-1151.55C394.69,-1151.55 394.69,-911.81 394.69,-911.81"/>
<polygon fill="black" stroke="black" points="398.19,-911.81 394.69,-901.81 391.19,-911.81 398.19,-911.81"/>
</g>
<!-- [root] aws_route_table_association.public_c (expand)&#45;&gt;[root] aws_route_table.public -->
<g id="edge36" class="edge">
<title>[root] aws_route_table_association.public_c (expand)&#45;&gt;[root] aws_route_table.public</title>
<path fill="none" stroke="black" d="M415.04,-863.83C415.04,-842.5 415.04,-810 415.04,-810 415.04,-810 849.21,-810 849.21,-810 849.21,-810 849.21,-767.68 849.21,-767.68"/>
<polygon fill="black" stroke="black" points="852.71,-767.68 849.21,-757.68 845.71,-767.68 852.71,-767.68"/>
</g>
<!-- [root] aws_route_table_association.public_c (expand)&#45;&gt;[root] aws_subnet.public_c (expand) -->
<g id="edge37" class="edge">
<title>[root] aws_route_table_association.public_c (expand)&#45;&gt;[root] aws_subnet.public_c (expand)</title>
<path fill="none" stroke="black" d="M444.83,-863.71C444.83,-863.71 444.83,-479.56 444.83,-479.56"/>
<polygon fill="black" stroke="black" points="448.33,-479.56 444.83,-469.56 441.33,-479.56 448.33,-479.56"/>
</g>
<!-- [root] aws_subnet.private_data_a (expand)&#45;&gt;[root] aws_vpc.main -->
<g id="edge39" class="edge">
<title>[root] aws_subnet.private_data_a (expand)&#45;&gt;[root] aws_vpc.main</title>
<path fill="none" stroke="black" d="M1333.58,-456C1259.75,-456 1162.33,-456 1162.33,-456 1162.33,-456 1162.33,-335.91 1162.33,-335.91"/>
<polygon fill="black" stroke="black" points="1165.83,-335.91 1162.33,-325.91 1158.83,-335.91 1165.83,-335.91"/>
</g>
<!-- [root] aws_subnet.private_data_b (expand)&#45;&gt;[root] aws_vpc.main -->
<g id="edge40" class="edge">
<title>[root] aws_subnet.private_data_b (expand)&#45;&gt;[root] aws_vpc.main</title>
<path fill="none" stroke="black" d="M1777.88,-575.73C1777.88,-511.81 1777.88,-302 1777.88,-302 1777.88,-302 1197.23,-302 1197.23,-302"/>
<polygon fill="black" stroke="black" points="1197.23,-298.5 1187.23,-302 1197.23,-305.5 1197.23,-298.5"/>
</g>
<!-- [root] aws_subnet.private_data_c (expand)&#45;&gt;[root] aws_vpc.main -->
<g id="edge41" class="edge">
<title>[root] aws_subnet.private_data_c (expand)&#45;&gt;[root] aws_vpc.main</title>
<path fill="none" stroke="black" d="M2029.88,-575.75C2029.88,-510.83 2029.88,-295 2029.88,-295 2029.88,-295 1197.03,-295 1197.03,-295"/>
<polygon fill="black" stroke="black" points="1197.03,-291.5 1187.03,-295 1197.03,-298.5 1197.03,-291.5"/>
</g>
<!-- [root] aws_subnet.private_egress_a (expand)&#45;&gt;[root] aws_vpc.main -->
<g id="edge42" class="edge">
<title>[root] aws_subnet.private_egress_a (expand)&#45;&gt;[root] aws_vpc.main</title>
<path fill="none" stroke="black" d="M223.88,-431.84C223.88,-403.26 223.88,-351 223.88,-351 223.88,-351 1094.83,-351 1094.83,-351 1094.83,-351 1094.83,-335.82 1094.83,-335.82"/>
<polygon fill="black" stroke="black" points="1098.33,-335.82 1094.83,-325.82 1091.33,-335.82 1098.33,-335.82"/>
</g>
<!-- [root] aws_subnet.private_egress_b (expand)&#45;&gt;[root] aws_vpc.main -->
<g id="edge43" class="edge">
<title>[root] aws_subnet.private_egress_b (expand)&#45;&gt;[root] aws_vpc.main</title>
<path fill="none" stroke="black" d="M793,-431.7C793,-419.24 793,-405 793,-405 793,-405 1103.5,-405 1103.5,-405 1103.5,-405 1103.5,-335.67 1103.5,-335.67"/>
<polygon fill="black" stroke="black" points="1107,-335.67 1103.5,-325.67 1100,-335.67 1107,-335.67"/>
</g>
<!-- [root] aws_subnet.private_egress_c (expand)&#45;&gt;[root] aws_vpc.main -->
<g id="edge44" class="edge">
<title>[root] aws_subnet.private_egress_c (expand)&#45;&gt;[root] aws_vpc.main</title>
<path fill="none" stroke="black" d="M1328.88,-863.52C1328.88,-766.15 1328.88,-317 1328.88,-317 1328.88,-317 1197.09,-317 1197.09,-317"/>
<polygon fill="black" stroke="black" points="1197.09,-313.5 1187.09,-317 1197.09,-320.5 1197.09,-313.5"/>
</g>
<!-- [root] aws_subnet.public_a (expand)&#45;&gt;[root] aws_vpc.main -->
<g id="edge45" class="edge">
<title>[root] aws_subnet.public_a (expand)&#45;&gt;[root] aws_vpc.main</title>
<path fill="none" stroke="black" d="M1112.17,-575.55C1112.17,-575.55 1112.17,-335.81 1112.17,-335.81"/>
<polygon fill="black" stroke="black" points="1115.67,-335.81 1112.17,-325.81 1108.67,-335.81 1115.67,-335.81"/>
</g>
<!-- [root] aws_subnet.public_b (expand)&#45;&gt;[root] aws_vpc.main -->
<g id="edge46" class="edge">
<title>[root] aws_subnet.public_b (expand)&#45;&gt;[root] aws_vpc.main</title>
<path fill="none" stroke="black" d="M1139.42,-719.71C1139.42,-719.71 1139.42,-335.56 1139.42,-335.56"/>
<polygon fill="black" stroke="black" points="1142.92,-335.56 1139.42,-325.56 1135.92,-335.56 1142.92,-335.56"/>
</g>
<!-- [root] aws_subnet.public_c (expand)&#45;&gt;[root] aws_vpc.main -->
<g id="edge47" class="edge">
<title>[root] aws_subnet.public_c (expand)&#45;&gt;[root] aws_vpc.main</title>
<path fill="none" stroke="black" d="M449.88,-431.83C449.88,-410.5 449.88,-378 449.88,-378 449.88,-378 1099.17,-378 1099.17,-378 1099.17,-378 1099.17,-335.68 1099.17,-335.68"/>
<polygon fill="black" stroke="black" points="1102.67,-335.68 1099.17,-325.68 1095.67,-335.68 1102.67,-335.68"/>
</g>
<!-- [root] aws_vpc.main (expand) -->
<g id="node38" class="node">
<title>[root] aws_vpc.main (expand)</title>
<polygon fill="none" stroke="black" points="990.25,-180 895.5,-180 895.5,-144 990.25,-144 990.25,-180"/>
<text xml:space="preserve" text-anchor="middle" x="942.88" y="-156.95" font-family="Times,serif" font-size="14.00">aws_vpc.main</text>
</g>
<!-- [root] aws_vpc.main&#45;&gt;[root] aws_vpc.main (expand) -->
<g id="edge49" class="edge">
<title>[root] aws_vpc.main&#45;&gt;[root] aws_vpc.main (expand)</title>
<path fill="none" stroke="black" d="M1117.9,-287.76C1117.9,-249.01 1117.9,-162 1117.9,-162 1117.9,-162 1002.22,-162 1002.22,-162"/>
<polygon fill="black" stroke="black" points="1002.22,-158.5 992.22,-162 1002.22,-165.5 1002.22,-158.5"/>
</g>
<!-- [root] aws_vpc.main (expand)&#45;&gt;[root] provider[&quot;registry.terraform.io/hashicorp/aws&quot;] -->
<g id="edge48" class="edge">
<title>[root] aws_vpc.main (expand)&#45;&gt;[root] provider[&quot;registry.terraform.io/hashicorp/aws&quot;]</title>
<path fill="none" stroke="black" d="M942.88,-143.76C942.88,-143.76 942.88,-43.71 942.88,-43.71"/>
<polygon fill="black" stroke="black" points="946.38,-43.71 942.88,-33.71 939.38,-43.71 946.38,-43.71"/>
</g>
<!-- [root] provider[&quot;registry.terraform.io/hashicorp/aws&quot;] (close) -->
<g id="node40" class="node">
<title>[root] provider[&quot;registry.terraform.io/hashicorp/aws&quot;] (close)</title>
<ellipse fill="none" stroke="black" cx="1102.88" cy="-1314" rx="238.16" ry="18"/>
<text xml:space="preserve" text-anchor="middle" x="1102.88" y="-1308.95" font-family="Times,serif" font-size="14.00">[root] provider[&quot;registry.terraform.io/hashicorp/aws&quot;] (close)</text>
</g>
<!-- [root] provider[&quot;registry.terraform.io/hashicorp/aws&quot;] (close)&#45;&gt;[root] aws_route_table_association.private_data_a -->
<g id="edge50" class="edge">
<title>[root] provider[&quot;registry.terraform.io/hashicorp/aws&quot;] (close)&#45;&gt;[root] aws_route_table_association.private_data_a</title>
<path fill="none" stroke="black" d="M1311.12,-1305C1434.18,-1305 1566.12,-1305 1566.12,-1305 1566.12,-1305 1566.12,-1055.82 1566.12,-1055.82"/>
<polygon fill="black" stroke="black" points="1569.63,-1055.82 1566.13,-1045.82 1562.63,-1055.82 1569.63,-1055.82"/>
</g>
<!-- [root] provider[&quot;registry.terraform.io/hashicorp/aws&quot;] (close)&#45;&gt;[root] aws_route_table_association.private_data_b -->
<g id="edge51" class="edge">
<title>[root] provider[&quot;registry.terraform.io/hashicorp/aws&quot;] (close)&#45;&gt;[root] aws_route_table_association.private_data_b</title>
<path fill="none" stroke="black" d="M1341.1,-1314C1528.75,-1314 1758.88,-1314 1758.88,-1314 1758.88,-1314 1758.88,-1199.75 1758.88,-1199.75"/>
<polygon fill="black" stroke="black" points="1762.38,-1199.75 1758.88,-1189.75 1755.38,-1199.75 1762.38,-1199.75"/>
</g>
<!-- [root] provider[&quot;registry.terraform.io/hashicorp/aws&quot;] (close)&#45;&gt;[root] aws_route_table_association.private_data_c -->
<g id="edge52" class="edge">
<title>[root] provider[&quot;registry.terraform.io/hashicorp/aws&quot;] (close)&#45;&gt;[root] aws_route_table_association.private_data_c</title>
<path fill="none" stroke="black" d="M1311.13,-1323C1580.87,-1323 2016.88,-1323 2016.88,-1323 2016.88,-1323 2016.88,-1055.65 2016.88,-1055.65"/>
<polygon fill="black" stroke="black" points="2020.38,-1055.65 2016.88,-1045.65 2013.38,-1055.65 2020.38,-1055.65"/>
</g>
<!-- [root] provider[&quot;registry.terraform.io/hashicorp/aws&quot;] (close)&#45;&gt;[root] aws_route_table_association.private_egress_a -->
<g id="edge53" class="edge">
<title>[root] provider[&quot;registry.terraform.io/hashicorp/aws&quot;] (close)&#45;&gt;[root] aws_route_table_association.private_egress_a</title>
<path fill="none" stroke="black" d="M877.29,-1320C590.7,-1320 132.88,-1320 132.88,-1320 132.88,-1320 132.88,-1199.91 132.88,-1199.91"/>
<polygon fill="black" stroke="black" points="136.38,-1199.91 132.88,-1189.91 129.38,-1199.91 136.38,-1199.91"/>
</g>
<!-- [root] provider[&quot;registry.terraform.io/hashicorp/aws&quot;] (close)&#45;&gt;[root] aws_route_table_association.private_egress_b -->
<g id="edge54" class="edge">
<title>[root] provider[&quot;registry.terraform.io/hashicorp/aws&quot;] (close)&#45;&gt;[root] aws_route_table_association.private_egress_b</title>
<path fill="none" stroke="black" d="M899.81,-1304.55C899.81,-1272.52 899.81,-1170 899.81,-1170 899.81,-1170 852.12,-1170 852.12,-1170"/>
<polygon fill="black" stroke="black" points="852.12,-1166.5 842.12,-1170 852.12,-1173.5 852.12,-1166.5"/>
</g>
<!-- [root] provider[&quot;registry.terraform.io/hashicorp/aws&quot;] (close)&#45;&gt;[root] aws_route_table_association.private_egress_c -->
<g id="edge55" class="edge">
<title>[root] provider[&quot;registry.terraform.io/hashicorp/aws&quot;] (close)&#45;&gt;[root] aws_route_table_association.private_egress_c</title>
<path fill="none" stroke="black" d="M1102.88,-1295.76C1102.88,-1295.76 1102.88,-1199.6 1102.88,-1199.6"/>
<polygon fill="black" stroke="black" points="1106.38,-1199.6 1102.88,-1189.6 1099.38,-1199.6 1106.38,-1199.6"/>
</g>
<!-- [root] provider[&quot;registry.terraform.io/hashicorp/aws&quot;] (close)&#45;&gt;[root] aws_route_table_association.public_a -->
<g id="edge56" class="edge">
<title>[root] provider[&quot;registry.terraform.io/hashicorp/aws&quot;] (close)&#45;&gt;[root] aws_route_table_association.public_a</title>
<path fill="none" stroke="black" d="M934.9,-1300.88C934.9,-1300.88 934.9,-1055.7 934.9,-1055.7"/>
<polygon fill="black" stroke="black" points="938.4,-1055.7 934.9,-1045.7 931.4,-1055.7 938.4,-1055.7"/>
</g>
<!-- [root] provider[&quot;registry.terraform.io/hashicorp/aws&quot;] (close)&#45;&gt;[root] aws_route_table_association.public_b -->
<g id="edge57" class="edge">
<title>[root] provider[&quot;registry.terraform.io/hashicorp/aws&quot;] (close)&#45;&gt;[root] aws_route_table_association.public_b</title>
<path fill="none" stroke="black" d="M1309.89,-1304.99C1309.89,-1304.99 1309.89,-1199.63 1309.89,-1199.63"/>
<polygon fill="black" stroke="black" points="1313.39,-1199.63 1309.89,-1189.63 1306.39,-1199.63 1313.39,-1199.63"/>
</g>
<!-- [root] provider[&quot;registry.terraform.io/hashicorp/aws&quot;] (close)&#45;&gt;[root] aws_route_table_association.public_c -->
<g id="edge58" class="edge">
<title>[root] provider[&quot;registry.terraform.io/hashicorp/aws&quot;] (close)&#45;&gt;[root] aws_route_table_association.public_c</title>
<path fill="none" stroke="black" d="M877.34,-1308C678.4,-1308 419.88,-1308 419.88,-1308 419.88,-1308 419.88,-1199.84 419.88,-1199.84"/>
<polygon fill="black" stroke="black" points="423.38,-1199.84 419.88,-1189.84 416.38,-1199.84 423.38,-1199.84"/>
</g>
<!-- [root] root -->
<g id="node41" class="node">
<title>[root] root</title>
<ellipse fill="none" stroke="black" cx="1102.88" cy="-1458" rx="49.3" ry="18"/>
<text xml:space="preserve" text-anchor="middle" x="1102.88" y="-1452.95" font-family="Times,serif" font-size="14.00">[root] root</text>
</g>
<!-- [root] root&#45;&gt;[root] provider[&quot;registry.terraform.io/hashicorp/aws&quot;] (close) -->
<g id="edge59" class="edge">
<title>[root] root&#45;&gt;[root] provider[&quot;registry.terraform.io/hashicorp/aws&quot;] (close)</title>
<path fill="none" stroke="black" d="M1102.88,-1439.76C1102.88,-1439.76 1102.88,-1343.6 1102.88,-1343.6"/>
<polygon fill="black" stroke="black" points="1106.38,-1343.6 1102.88,-1333.6 1099.38,-1343.6 1106.38,-1343.6"/>
</g>
</g>
</svg>
